<?xml version="1.0" standalone="no"?>
<!DOCTYPE svg PUBLIC "-//W3C//DTD SVG 1.1//EN" "http://www.w3.org/Graphics/SVG/1.1/DTD/svg11.dtd" >
<svg xmlns="http://www.w3.org/2000/svg">
<metadata>
This is a custom SVG webfont generated by Font Squirrel.
Copyright   : Copyright 19901999 as an unpublished work by Bitstream Inc  All rights reserved  Confidential
</metadata>
<defs>
<font id="webfonteSlukxvC" horiz-adv-x="1138" >
<font-face units-per-em="2048" ascent="1638" descent="-410" />
<missing-glyph horiz-adv-x="569" />
<glyph unicode=" "  horiz-adv-x="569" />
<glyph unicode="&#x09;" horiz-adv-x="569" />
<glyph unicode="&#xa0;" horiz-adv-x="569" />
<glyph unicode="!" horiz-adv-x="692" d="M453 1133l-58 -783h-98l-57 783q-6 68 -7 118q0 147 113 147.5t113 -147.5q0 -32 -6 -118zM346 215q49 0 83 -34t34 -83q0 -47 -34 -81.5t-83 -34.5q-47 0 -82 33.5t-35 82.5t35 83t82 34z" />
<glyph unicode="&#x22;" horiz-adv-x="677" d="M190 864h-32l-64 457q-4 29 -4 41q0 100 84 100q86 0 86 -100q0 -8 -4 -41zM518 864h-31l-65 457q-4 29 -4 39q0 102 86 102q84 0 84 -100q0 -25 -2 -41z" />
<glyph unicode="#" horiz-adv-x="1525" d="M758 1454l96 -37l-162 -454h316l163 489l97 -35l-160 -454h285v-97h-318l-100 -299h334v-96h-367l-172 -518l-96 33l164 485h-314l-170 -518l-96 33l168 485h-295v96h326l98 299h-324v97h357zM662 866l-101 -299h305l105 299h-309z" />
<glyph unicode="$" d="M530 1522h86v-146h17q133 0 330 -45v-319h-93l-30 190l-31 43q-94 35 -193 35v-502q213 -57 308.5 -145t95.5 -240q0 -147 -107.5 -253.5t-296.5 -139.5v-209h-86v209q-252 8 -411 51v344h94l37 -223l18 -27q104 -51 262 -51v535q-375 86 -374 372q0 141 98 239.5 t276 129.5v152zM530 1274q-96 -20 -148 -83t-52 -153q0 -172 200 -235v471zM621 602v-500q106 16 167.5 86t61.5 168q0 178 -229 246z" />
<glyph unicode="%" horiz-adv-x="1744" d="M370.5 1399q139.5 0 223.5 -114t84 -314q0 -203 -83 -316.5t-224.5 -113.5t-224.5 113.5t-83 316.5q0 201 84 314.5t223.5 113.5zM1245 1374h125l-876 -1374h-123zM367 1325q-160 0 -160 -354q0 -356 160 -357q164 0 163 357q1 354 -163 354zM1374 834q139 0 223 -114 t84 -314q0 -203 -82.5 -317t-224 -114t-224.5 114t-83 317q0 201 84 314.5t223 113.5zM1370 762q-160 0 -160 -356.5t160 -356.5q164 0 164 356.5t-164 356.5z" />
<glyph unicode="&#x26;" horiz-adv-x="1441" d="M565 799q201 92 201 282q0 102 -54.5 163t-146.5 61q-82 0 -136 -56.5t-54 -144.5q0 -76 46 -146.5t144 -158.5zM637 731l352 -381q94 135 115 242l-37 39l-113 16v82h416v-82l-147 -20q-57 -197 -170 -348l159 -185l187 -10v-84h-361v49l-92 103q-205 -176 -401 -177 q-190 0 -313 116t-123 288q0 244 270 366q-168 164 -168 314q0 143 106.5 241.5t266 98.5t256 -88t96.5 -219q0 -121 -70.5 -204t-228.5 -157zM457 686q-160 -109 -160 -264q0 -141 85 -232.5t216 -91.5q156 0 285 123z" />
<glyph unicode="'" horiz-adv-x="348" d="M190 864h-32l-66 457q-2 14 -2 39q0 102 84 102q86 0 86 -100q0 -8 -4 -41z" />
<glyph unicode="(" horiz-adv-x="854" d="M791 1470v-86q-209 -37 -304.5 -233.5t-95.5 -568.5q0 -362 97.5 -557t302.5 -230v-86q-270 31 -422 258.5t-152 616.5q0 397 150 624t424 262z" />
<glyph unicode=")" horiz-adv-x="854" d="M63 1470q274 -35 424 -262t150 -624q0 -389 -151.5 -616.5t-422.5 -258.5v86q205 35 302.5 229.5t97.5 557.5q0 373 -95.5 569.5t-304.5 232.5v86z" />
<glyph unicode="*" horiz-adv-x="1024" d="M512 1470l80 -124l-66 -256h-28l-66 256zM772 1206l143 -37l-94 -114l-262 -17l-8 27zM545 1006l203 -166l8 -148l-138 53l-96 246zM479 1006l21 -15l-97 -248l-137 -51l8 148zM252 1206l223 -143l-8 -25l-264 17l-92 114z" />
<glyph unicode="+" horiz-adv-x="1705" d="M795 1221h118v-551h539v-117h-539v-553h-118v553h-541v117h541v551z" />
<glyph unicode="," horiz-adv-x="569" d="M80 -346v67q225 43 225 271v22h-131q-33 35 -33 90q0 51 34 82t87 31q78 0 121 -53t43 -152q0 -135 -97 -238.5t-249 -119.5z" />
<glyph unicode="-" horiz-adv-x="653" d="M96 561h461v-137h-461v137z" />
<glyph unicode="." horiz-adv-x="569" d="M284.5 242q53.5 0 91.5 -38t38 -93q0 -53 -38 -91t-91 -38q-55 0 -93 36.5t-38 92t38.5 93.5t92 38z" />
<glyph unicode="/" horiz-adv-x="985" d="M817 1374h125l-876 -1564h-123z" />
<glyph unicode="0" d="M569.5 1399q223.5 0 354.5 -187.5t131 -523.5t-131 -524.5t-354.5 -188.5t-354.5 188.5t-131 524.5t131 523.5t354.5 187.5zM569.5 1303q-141.5 0 -217.5 -157t-76 -460q0 -301 75 -456.5t218 -155.5q141 0 216 155.5t75 458.5t-74.5 459t-216 156z" />
<glyph unicode="1" d="M637 1399h57v-1272l25 -31l221 -10v-86h-686v88l235 12l25 35v1102l-321 -57v86z" />
<glyph unicode="2" d="M289 162h616l37 174h92v-336h-948v129l249 205q91 78 190.5 174t149.5 166.5t83 150.5t33 160q0 145 -73 227t-200 82q-96 0 -182 -49v-219q-43 -31 -92 -31q-53 0 -84 31t-31 84q0 113 125 201t309 88q197 0 311.5 -105.5t114.5 -281.5q0 -180 -161.5 -365.5 t-538.5 -484.5z" />
<glyph unicode="3" d="M649 723q170 -12 264.5 -100t94.5 -230q0 -176 -143.5 -296t-375.5 -120q-174 0 -289.5 71t-115.5 155q0 45 33 74.5t82 29.5q33 0 61 -10l64 -174q82 -49 174 -49q139 0 230 93t91 230q0 123 -77.5 189.5t-225.5 66.5q-57 0 -108 -8v121q6 0 20 -1t23 -1 q154 0 235.5 69.5t81.5 194.5q0 121 -70.5 193.5t-189.5 72.5q-109 0 -195 -59v-193q-35 -27 -84 -26.5t-79.5 31t-30.5 79.5q0 106 124 189.5t308 83.5t293.5 -94.5t109.5 -249.5q0 -244 -305 -332z" />
<glyph unicode="4" d="M754 1386h118v-856h232v-133h-232v-473h-157v473h-660v133zM715 1163l-506 -633h506v633z" />
<glyph unicode="5" d="M207 1374h733v-160h-606v-409q117 33 219 33q205 0 326.5 -108.5t121.5 -285.5q0 -203 -149.5 -332.5t-396.5 -129.5q-154 0 -253.5 58t-99.5 134q0 47 34 78t85 31q18 0 49 -7l82 -176q68 -25 137 -24q143 0 233.5 92t90.5 235q0 307 -426 308q-113 0 -180 -13v676z" />
<glyph unicode="6" d="M907 1462v-119h-6q-246 0 -399.5 -142t-200.5 -415q162 125 348 125q184 0 305 -126t121 -320q0 -207 -142 -348.5t-353 -141.5t-344.5 160t-133.5 432q0 393 214 631.5t591 263.5zM297 696q-4 -43 -4 -125q0 -242 79 -369.5t224 -127.5q127 0 210 105.5t83 266.5 q0 156 -82 249t-213 93q-172 0 -297 -92z" />
<glyph unicode="7" d="M145 1374h942v-82l-679 -1323v-45h-170l667 1295h-631l-32 -187h-97v342z" />
<glyph unicode="8" d="M657 756q164 106 164 282q0 123 -67.5 195t-180.5 72q-106 0 -176.5 -70t-70.5 -172q0 -100 80.5 -173t250.5 -134zM743 719q293 -102 293 -352q0 -168 -132 -284t-341 -116q-217 0 -345 109.5t-128 285.5q0 246 281 355q-215 90 -215 315q0 164 116.5 267.5t307.5 103.5 q182 0 290.5 -96.5t108.5 -247.5q0 -102 -61.5 -191.5t-174.5 -148.5zM449 674q-104 -55 -152.5 -126t-48.5 -173q0 -135 87 -218t234 -83q131 0 211 74.5t80 197.5q0 113 -90 177.5t-321 150.5z" />
<glyph unicode="9" d="M842 653q25 109 24 207q0 213 -77.5 325.5t-219.5 112.5q-127 0 -207.5 -99t-80.5 -265q0 -170 78.5 -261t224.5 -91q119 -1 258 71zM258 -106l-47 94q473 221 604 563q-172 -80 -307 -80q-186 0 -303 121t-117 319q0 213 139.5 348.5t360.5 135.5q215 0 338 -139.5 t123 -385.5q0 -307 -209 -571t-582 -405z" />
<glyph unicode=":" horiz-adv-x="653" d="M326 985q55 0 93 -37t38 -92q0 -53 -39 -92t-92.5 -39t-91 39t-37.5 92q0 55 38 92t91 37zM325.5 242q53.5 0 92.5 -38t39 -93q0 -53 -39 -91t-92.5 -38t-91 36.5t-37.5 92t37.5 93.5t91 38z" />
<glyph unicode=";" horiz-adv-x="653" d="M326 985q55 0 93 -37t38 -92q0 -53 -39 -92t-92.5 -39t-91 39t-37.5 92q0 55 38 92t91 37zM133 -346v67q225 43 225 271v22h-133q-33 35 -32 90q0 51 33.5 82t86.5 31q78 0 121 -53t43 -152q0 -135 -96 -238.5t-248 -119.5z" />
<glyph unicode="&#x3c;" horiz-adv-x="1705" d="M1442 1145v-127l-1000 -408l1000 -405v-129l-1178 483v103z" />
<glyph unicode="=" horiz-adv-x="1705" d="M254 860h1198v-117h-1198v117zM254 477h1198v-117h-1198v117z" />
<glyph unicode="&#x3e;" horiz-adv-x="1705" d="M264 1145l1178 -483v-103l-1178 -483v129l1000 405l-1000 408v127z" />
<glyph unicode="?" horiz-adv-x="995" d="M465 590v-240h-109v299q297 111 297 367q0 137 -74.5 213t-211.5 76h-13l-82 -203q-12 -2 -36 -2q-123 0 -123 108q0 80 84 135.5t217 55.5q195 0 310.5 -101.5t115.5 -269.5q0 -143 -92.5 -249.5t-282.5 -188.5zM410 215q49 0 83.5 -34t34.5 -83q0 -47 -34.5 -81.5 t-83.5 -34.5q-47 0 -81 33.5t-34 82.5t34 83t81 34z" />
<glyph unicode="@" horiz-adv-x="1929" d="M1432 999q-20 -49 -56 -219l-80 -352q-16 -72 -16 -113q0 -39 23.5 -63.5t62.5 -24.5q92 0 180 107q143 170 144 438q0 242 -161 399.5t-419 157.5q-334 0 -555 -205q-254 -236 -254 -596q0 -336 200.5 -538.5t530.5 -202.5q283 0 539 150l28 -70q-324 -180 -622 -180 q-350 0 -592 231q-229 219 -229 586q0 408 297 680q121 111 286.5 172t341.5 61q324 0 513.5 -179t189.5 -474q0 -227 -115 -404q-76 -115 -182.5 -181t-206.5 -66q-152 0 -152 157v19q-166 -172 -301 -172q-111 0 -182.5 90t-71.5 237q0 195 115 351q74 100 179.5 156.5 t215.5 56.5q96 0 201 -56l37 47h111zM1133 922q-29 4 -46 4q-143 0 -241 -130t-98 -327q0 -227 170 -227q106 0 215 135l84 430z" />
<glyph unicode="A" horiz-adv-x="1308" d="M582 1391h135l491 -1282l123 -25v-84h-465v84l127 10l15 29l-148 391h-483l-146 -391l21 -29l133 -10v-84h-401v84l118 25zM614 1176l-202 -568h413z" />
<glyph unicode="B" horiz-adv-x="1236" d="M68 1374h522q469 0 469 -332q0 -233 -297 -313q182 -2 281.5 -89t99.5 -239q0 -195 -137.5 -298t-397.5 -103h-540v84l116 10l35 29v1128l-35 29l-116 12v82zM403 752q27 -2 78 -2q193 0 284 68.5t91 215.5q0 250 -336 250q-14 0 -54 -3t-63 -3v-526zM403 102 q74 -6 138 -6q209 0 305 68.5t96 222.5q0 274 -338 275q-80 0 -201 -13v-547z" />
<glyph unicode="C" horiz-adv-x="1294" d="M1204 47q-205 -72 -413 -72q-203 0 -349 82q-164 94 -259 262t-95 369q0 319 195.5 515t515.5 196q184 0 405 -70v-315h-114l-31 186l-27 37q-117 53 -229 53q-231 0 -367.5 -157.5t-136.5 -430.5q0 -291 142.5 -454.5t392.5 -163.5q90 0 178 27l32 32l46 228h114v-324z " />
<glyph unicode="D" horiz-adv-x="1419" d="M573 1374q362 0 559 -181t197 -505q0 -367 -256 -561q-98 -74 -215 -100.5t-285 -26.5h-505v84l116 10l35 29v1128l-35 29l-116 12v82h505zM403 1280v-1186h162q557 0 557 594q0 299 -138 445.5t-419 146.5h-162z" />
<glyph unicode="E" horiz-adv-x="1179" d="M68 0v84l116 10l35 29v1128l-35 29l-116 12v82h981v-299h-115l-29 174l-28 31h-474v-518h336l29 29l20 149h97v-451h-97l-20 148l-29 31h-336v-574h549l29 33l35 207h106v-334h-1054z" />
<glyph unicode="F" horiz-adv-x="1099" d="M68 0v84l116 10l35 29v1128l-35 29l-133 12v82h983v-319h-112l-31 194l-27 31h-461v-539h336l29 29l20 150h97v-453h-97l-20 149l-29 31h-336v-524l35 -29l146 -10v-84h-516z" />
<glyph unicode="G" horiz-adv-x="1421" d="M854 659h512v-84l-113 -10l-34 -28v-490q-246 -72 -424 -72q-207 0 -353 82q-166 94 -260 262t-94 369q0 326 198.5 518.5t536.5 192.5q186 0 394 -60v-325h-115l-31 186l-29 37q-117 53 -233 53q-236 0 -373 -156.5t-137 -431.5q0 -289 142.5 -453.5t383.5 -164.5 q94 0 209 27v426l-35 28l-145 10v84z" />
<glyph unicode="H" horiz-adv-x="1511" d="M68 1374h497v-82l-127 -12l-35 -29v-483h705v483l-35 29l-127 12v82h498v-82l-117 -12l-35 -29v-1128l35 -29l117 -10v-84h-498v84l127 10l35 29v551h-705v-551l35 -29l127 -10v-84h-497v84l116 10l35 29v1128l-35 29l-116 12v82z" />
<glyph unicode="I" horiz-adv-x="663" d="M72 0v84l131 10l35 29v1128l-35 29l-131 12v82h518v-82l-131 -12l-35 -29v-1128l35 -29l131 -10v-84h-518z" />
<glyph unicode="J" horiz-adv-x="909" d="M555 1251l-35 29l-137 12v82h518v-82l-127 -12l-35 -29v-727q0 -281 -106.5 -415t-339.5 -134q-127 0 -268 50v342h114l49 -258l29 -27q35 -8 72 -8q143 0 204.5 107.5t61.5 334.5v735z" />
<glyph unicode="K" horiz-adv-x="1251" d="M68 0v84l116 10l35 29v1128l-35 29l-116 12v82h497v-82l-127 -12l-35 -29v-555h78l455 555l-12 29l-115 12v82h426v-82l-135 -18l-430 -512l465 -668l149 -10v-84h-338v61l-391 551h-152v-489l35 -29l127 -10v-84h-497z" />
<glyph unicode="L" horiz-adv-x="1064" d="M55 0v84l129 10l35 29v1128l-35 29l-129 12v82h500v-82l-117 -12l-35 -29v-1157h463l29 33l35 246h106v-373h-981z" />
<glyph unicode="M" horiz-adv-x="1773" d="M63 0v84l123 16l37 39v1112l-26 29l-136 12v82h435v-55l385 -1028l389 1020v63h438v-82l-129 -12l-25 -29v-1128l25 -29l129 -10v-84h-489v84l135 10l20 29v1155l-485 -1278h-88l-467 1257v-1118l37 -39l125 -16v-84h-433z" />
<glyph unicode="N" horiz-adv-x="1460" d="M59 0v84l125 16l37 39v1112l-37 29l-131 12v82h385v-51l699 -1049v963l-37 37l-123 18v82h430v-82l-123 -18l-37 -37v-1237h-135l-780 1163v-1024l37 -39l123 -16v-84h-433z" />
<glyph unicode="O" horiz-adv-x="1497" d="M750 1409q264 0 450 -180q211 -205 211 -541q0 -227 -104 -405q-86 -147 -232.5 -231.5t-324.5 -84.5q-268 0 -451 176q-211 205 -211 545q0 338 209 541q187 180 453 180zM750 1298q-203 0 -326 -162.5t-123 -447.5q0 -283 123 -447.5t326 -164.5q201 0 323.5 165 t122.5 447.5t-122.5 446t-323.5 163.5z" />
<glyph unicode="P" horiz-adv-x="1142" d="M68 0v84l116 10l35 29v1128l-35 29l-133 12v82h467q301 0 435 -94t134 -324q0 -199 -142 -319.5t-388 -120.5q-47 0 -154 10v-403l35 -29l146 -10v-84h-516zM403 625q98 -10 136 -11q174 0 266 88.5t92 258.5q0 164 -95 241.5t-292 77.5q-70 0 -107 -4v-651z" />
<glyph unicode="Q" horiz-adv-x="1497" d="M848 -23q10 -244 291 -243q90 0 192 22v-84q-158 -33 -289 -32q-389 0 -389 337q-264 41 -418.5 232.5t-154.5 480.5q0 340 215 543q188 178 455 178q268 0 456 -178q213 -203 213 -543q0 -287 -153.5 -478.5t-417.5 -234.5zM750 80q205 0 328.5 164t123.5 446.5 t-124 446t-328.5 163.5t-328.5 -162.5t-124 -447.5q0 -281 125 -445.5t328 -164.5z" />
<glyph unicode="R" horiz-adv-x="1323" d="M68 1374h522q250 0 371.5 -90t121.5 -278q0 -266 -331 -340q152 -41 211 -138q33 -53 58.5 -162.5t37.5 -140.5q33 -88 89 -116.5t177 -28.5h18v-78q-92 -18 -159 -18q-139 0 -207 59q-35 31 -59.5 75t-36 81t-27.5 99t-27 95q-41 125 -111.5 173t-209.5 48 q-29 0 -103 -4v-487l35 -29l117 -10v-84h-487v84l116 10l35 29v1128l-35 29l-116 12v82zM403 1280v-571q63 -2 113 -2q186 0 274.5 66.5t88.5 215.5q0 156 -91.5 223.5t-285.5 67.5h-99z" />
<glyph unicode="S" d="M123 41v360h121l24 -235l27 -35q90 -47 229 -47q145 0 227.5 67.5t82.5 178.5q0 109 -62.5 160t-230.5 122q-33 12 -49 21q-188 82 -267.5 157.5t-79.5 215.5q0 176 129 284.5t344 108.5q170 0 349 -58v-317h-107l-31 195l-30 34q-78 43 -185 43q-129 0 -203.5 -67.5 t-74.5 -179.5q0 -96 63.5 -148.5t223.5 -120.5q14 -6 61 -24.5l68.5 -27.5t57.5 -27.5t65.5 -40t56.5 -48.5q90 -90 90 -225q0 -184 -143.5 -298t-386.5 -114q-217 0 -369 66z" />
<glyph unicode="T" horiz-adv-x="1222" d="M33 1374h1157v-315h-113l-28 190l-29 31h-315v-1157l36 -29l138 -10v-84h-535v84l137 10l37 29v1157h-315l-29 -31l-29 -190h-112v315z" />
<glyph unicode="U" horiz-adv-x="1421" d="M51 1374h502v-82l-127 -12l-37 -29v-741q0 -211 86 -309.5t281 -98.5q193 0 278.5 98.5t85.5 309.5v727l-39 37l-123 18v82h433v-82l-123 -18l-37 -37v-745q0 -129 -17.5 -212t-72.5 -149q-129 -156 -424 -156t-424 156q-55 68 -72.5 149.5t-17.5 211.5v759l-35 29 l-117 12v82z" />
<glyph unicode="V" horiz-adv-x="1265" d="M-47 1374h477v-82l-119 -12l-22 -29l385 -1032l370 1032l-20 29l-127 12v82h408v-82l-127 -24l-471 -1278h-142l-481 1278l-131 24v82z" />
<glyph unicode="W" horiz-adv-x="1900" d="M473 0l-344 1264l-129 28v82h459v-82l-129 -16l-17 -29l265 -946l329 1073h144l335 -1095l248 960l-22 29l-137 24v82h423v-82l-137 -28l-325 -1264h-140l-346 1120l-340 -1120h-137z" />
<glyph unicode="X" horiz-adv-x="1228" d="M23 1374h493v-82l-123 -12l-16 -25l268 -421l291 413l-18 27l-119 18v82h418v-82l-132 -20l-374 -535l397 -628l139 -25v-84h-518v84l137 14l15 29l-289 465l-324 -459l13 -37l137 -12v-84h-436v84l135 27l411 575l-370 580l-135 26v82z" />
<glyph unicode="Y" horiz-adv-x="1200" d="M-27 1374h476v-82l-117 -12l-21 -23l314 -563l344 547l-19 29l-125 22v82h418v-82l-125 -26l-426 -682v-461l33 -29l139 -10v-84h-530v84l139 10l33 29v434l-408 715l-125 20v82z" />
<glyph unicode="Z" horiz-adv-x="1200" d="M137 1374h957v-86l-779 -1188h619l22 27l37 244h111v-371h-1012v84l776 1192h-546l-39 -27l-33 -192h-113v317z" />
<glyph unicode="[" horiz-adv-x="862" d="M285 1450h485v-88h-324v-1546h324v-86h-485v1720z" />
<glyph unicode="\" horiz-adv-x="985" d="M27 1374h125l876 -1564h-125z" />
<glyph unicode="]" horiz-adv-x="862" d="M94 1450h484v-1722h-484v88h324v1546h-324v88z" />
<glyph unicode="^" horiz-adv-x="2048" d="M934 1462h178l520 -565h-92l-518 436l-520 -436h-90z" />
<glyph unicode="_" horiz-adv-x="1024" d="M0 -365h1024v-118h-1024v118z" />
<glyph unicode="`" horiz-adv-x="1024" d="M213 1507h203l198 -389h-102z" />
<glyph unicode="a" horiz-adv-x="1038" d="M684 119q-195 -133 -336 -133q-121 0 -191.5 72.5t-70.5 189.5q0 150 128 220.5t470 152.5v65q0 125 -40 177t-148 52q-76 0 -156 -32v-172h-141q-35 0 -49.5 13t-14.5 50q0 96 112.5 164t301.5 68q162 0 233.5 -70t71.5 -225v-594l37 -33l108 -10v-74h-288zM684 188v361 q-236 -66 -327 -122t-91 -163q0 -76 44 -122t120 -46q94 0 254 92z" />
<glyph unicode="b" horiz-adv-x="1103" d="M268 1507h78v-573q150 72 281 72q182 0 293.5 -129t111.5 -338q0 -264 -150.5 -401.5t-443.5 -137.5h-262v1370h-160v64zM346 94q63 -2 113 -2q201 0 295 98.5t94 309.5q0 190 -84 293.5t-238 103.5q-72 0 -180 -33v-770z" />
<glyph unicode="c" horiz-adv-x="913" d="M870 86q-172 -100 -333 -100q-209 0 -335 140t-126 368q0 229 135 370.5t350 141.5q145 0 226 -55.5t81 -145.5q0 -49 -31.5 -79t-82.5 -30q-45 0 -92 31v168q-47 29 -99 29q-133 0 -217 -113t-84 -303q0 -188 94.5 -295t253.5 -107q131 0 260 87v-107z" />
<glyph unicode="d" horiz-adv-x="1157" d="M784 1370h-157v64l250 73h77v-1390l35 -33l98 -10v-74h-303v106q-156 -125 -315 -124q-170 0 -282.5 133t-112.5 346q0 246 147.5 396.5t380.5 150.5q82 0 182 -23v385zM784 182v703q-111 33 -180 33q-156 0 -253 -116t-97 -306q0 -178 84 -281.5t223 -103.5 q108 -1 223 71z" />
<glyph unicode="e" horiz-adv-x="1005" d="M918 217v-113q-184 -123 -386 -122q-203 0 -329.5 139t-126.5 364q0 231 133 376t340 145q168 0 268.5 -107.5t100.5 -296.5q0 -41 -3 -63h-663v-23q0 -195 93 -306.5t251 -111.5q144 0 322 119zM735 625v32q0 125 -55 190.5t-158 65.5q-100 0 -176 -80.5t-84 -207.5h473 z" />
<glyph unicode="f" horiz-adv-x="657" d="M59 0v74l109 10l37 33v745h-131v66l131 30v23q0 250 115.5 396.5t300.5 146.5q70 0 114.5 -34t44.5 -83q0 -80 -84 -102l-186 122q-133 -61 -133 -319v-150h285v-96h-287v-745l35 -33l127 -10v-74h-478z" />
<glyph unicode="g" horiz-adv-x="1071" d="M756 948h293v-96h-226q57 -88 58 -190q0 -139 -107.5 -229.5t-284.5 -90.5h-34q-23 -45 -23 -92q0 -4 4 -49l197 -31q186 -29 267 -85t81 -167q0 -129 -123 -229q-166 -135 -405 -135q-176 0 -273.5 70.5t-97.5 193.5q0 98 58.5 166.5t162.5 87.5q-20 47 -20 92 q0 78 98 194q-117 27 -185.5 110t-68.5 200q0 150 108.5 244t288.5 94q117 -1 232 -58zM504 926q-90 0 -145.5 -67.5t-55.5 -184.5q0 -115 55.5 -183.5t145.5 -68.5t145.5 68.5t55.5 183t-55.5 183.5t-145.5 69zM422 61q-84 -27 -130 -80t-46 -120q0 -90 77.5 -151.5 t200.5 -61.5q133 0 219 64.5t86 152.5q0 78 -45 107.5t-163 52.5z" />
<glyph unicode="h" horiz-adv-x="1155" d="M289 1507h78v-624q223 123 331 123q133 0 204 -79t71 -233v-577l37 -33l108 -10v-74h-446v74l96 10l35 33v542q0 113 -47 162t-160 49q-96 0 -229 -67v-686l36 -33l97 -10v-74h-449v74l111 10l35 33v1253h-158v64z" />
<glyph unicode="i" horiz-adv-x="573" d="M315.5 1450q49.5 0 84 -35t34.5 -84t-34.5 -83t-84 -34t-84 34t-34.5 83q0 51 34.5 85t84 34zM307 995h78v-878l37 -33l110 -10v-74h-460v74l108 10l35 33v741h-143v64z" />
<glyph unicode="j" horiz-adv-x="544" d="M223 858h-145v64l237 73h78v-823q0 -190 -20.5 -295.5t-96.5 -189.5q-123 -133 -294 -133q-66 0 -104 30.5t-38 79.5q0 74 76 107l199 -121q109 35 108 317v891zM180 1331q0 51 35 85t84 34t84 -35t35 -84t-35 -83t-84 -34t-84 34t-35 83z" />
<glyph unicode="k" horiz-adv-x="1058" d="M51 0v74l111 10l35 33v1253h-158v64l250 73h78v-985h39l313 350l-14 29l-93 8v76h389v-76l-131 -16l-280 -297l360 -508l131 -10v-78h-319v68l-277 397h-118v-348l36 -33l97 -10v-74h-449z" />
<glyph unicode="l" horiz-adv-x="577" d="M57 0v74l121 10l35 33v1253h-158v64l250 73h78v-1390l37 -33l117 -10v-74h-480z" />
<glyph unicode="m" horiz-adv-x="1726" d="M930 868q233 137 352 138q123 0 193.5 -81t70.5 -231v-577l35 -33l109 -10v-74h-447v74l96 10l37 33v542q0 211 -184 211q-92 0 -231 -67v-686l36 -33l97 -10v-74h-437v74l99 10l35 33v542q0 211 -181 211q-98 0 -233 -67v-686l35 -33l98 -10v-74h-449v74l111 10l35 33 v741h-146v64l238 73h78v-112q209 123 328 123q153 -1 225 -138z" />
<glyph unicode="n" horiz-adv-x="1163" d="M61 0v74l111 10l35 33v741h-146v64l238 73h78v-112q223 123 330 123q135 0 205.5 -79t70.5 -233v-577l35 -33l110 -10v-74h-448v74l98 10l35 33v542q0 113 -47 162t-160 49q-98 0 -229 -67v-686l35 -33l98 -10v-74h-449z" />
<glyph unicode="o" horiz-adv-x="1103" d="M551 1006q209 0 343 -143.5t134 -369t-135 -368.5t-342 -143t-341 143t-134 369q0 227 133 369.5t342 142.5zM551 918q-127 0 -205 -114t-78 -310q0 -195 79 -309.5t204 -114.5q127 0 206 113.5t79 310.5q0 195 -79 309.5t-206 114.5z" />
<glyph unicode="p" horiz-adv-x="1128" d="M47 -446v73l111 11l35 32v1188h-146v64l238 73h77v-112q162 123 302 123q170 0 281.5 -133.5t111.5 -346.5q0 -242 -138.5 -387t-365.5 -145q-78 0 -191 18v-342l35 -32l131 -11v-73h-481zM362 119q98 -33 175 -33q152 0 246 112.5t94 301.5q0 174 -82 275.5t-217 101.5 q-94 0 -216 -70v-688z" />
<glyph unicode="q" horiz-adv-x="1087" d="M940 973l-4 -68q-2 -35 -3 -54.5t-1 -27.5v-1153l37 -35l108 -8v-73h-479v73l129 8l35 35v398q-156 -74 -283 -74q-180 0 -291.5 130t-111.5 347q0 246 153.5 391.5t417.5 145.5q125 0 293 -35zM762 897q-96 23 -156 23q-160 0 -253 -112t-93 -310q0 -188 83 -292 t228 -104q68 0 191 31v764z" />
<glyph unicode="r" horiz-adv-x="782" d="M61 0v74l109 10l37 33v741h-146v64l238 73h78v-192q98 102 219 198q16 4 51 5q61 0 123 -27v-176h-65q-41 49 -105 49q-96 0 -223 -150v-585l35 -33l143 -10v-74h-494z" />
<glyph unicode="s" horiz-adv-x="819" d="M705 961v-232h-101l-16 145q-80 43 -152 44q-82 0 -126 -39t-44 -109q0 -61 40 -101t134 -85l54 -26l58 -28q22 -10 51.5 -28.5t53.5 -36.5q78 -61 78 -176q0 -143 -101.5 -225t-281.5 -82q-150 0 -266 43v266h98l25 -174q86 -49 174 -49t140 46t52 119.5t-46 112.5 t-162 92q-141 63 -203 123t-62 158q0 135 94.5 211t268.5 76q138 0 240 -45z" />
<glyph unicode="t" horiz-adv-x="684" d="M180 862h-129v64l135 59l88 191h76v-218h312v-96h-312v-540q0 -123 34 -173.5t136 -50.5q66 0 142 17v-76q-141 -45 -269 -45q-123 0 -168 47t-45 160v661z" />
<glyph unicode="u" horiz-adv-x="1165" d="M291 1006h78v-678q0 -111 48 -164t150 -53q113 0 238 61v694h-146v64l238 76h78v-889l37 -33l96 -10v-74h-303v115q-188 -135 -332 -135q-133 0 -203.5 79.5t-70.5 233.5v573h-146v64z" />
<glyph unicode="v" horiz-adv-x="1011" d="M-10 985h444v-76l-108 -8l-25 -33l240 -669l262 669l-17 33l-110 8v76h362v-76l-120 -16l-359 -893h-115l-329 897l-125 12v76z" />
<glyph unicode="w" horiz-adv-x="1579" d="M-4 985h444v-76l-108 -8l-25 -33l187 -665l274 782h125l242 -782l208 665l-16 33l-110 8v76h362v-76l-115 -16l-293 -893h-127l-247 776l-277 -776h-127l-272 897l-125 12v76z" />
<glyph unicode="x" horiz-adv-x="1030" d="M37 985h440v-76l-94 -12l-10 -20l172 -269l186 262l-16 27l-99 12v76h369v-76l-115 -20l-270 -359l301 -438l123 -16v-76h-436v76l86 14l10 16l-190 306l-209 -297l10 -25l117 -14v-76h-387v76l116 16l295 395l-274 400l-125 22v76z" />
<glyph unicode="y" horiz-adv-x="1013" d="M-2 985h444v-76l-108 -8l-25 -33l246 -637l256 637l-16 33l-111 8v76h365v-76l-119 -16l-410 -995q-74 -176 -151.5 -260t-175.5 -84q-63 0 -102.5 31.5t-39.5 82.5q0 61 53 111l197 -78q92 100 166 307l-344 889l-125 12v76z" />
<glyph unicode="z" horiz-adv-x="958" d="M92 0v102l547 789h-379l-29 -33l-22 -158h-96v285h739v-78l-567 -813h440l31 33l22 174h105v-301h-791z" />
<glyph unicode="{" horiz-adv-x="995" d="M856 1440v-76q-152 -4 -206 -56.5t-54 -189.5v-166q0 -164 -58.5 -245.5t-209.5 -112.5q143 -33 205.5 -113t62.5 -233v-170q0 -162 46 -216.5t214 -56.5v-79h-51q-217 0 -295 79.5t-78 294.5v174q0 154 -55 215.5t-197 61.5q-6 0 -22.5 -1t-24.5 -1v90q18 -2 53 -2 q137 0 191.5 60.5t54.5 203.5v209q0 174 93 252t304 78h27z" />
<glyph unicode="|" horiz-adv-x="1024" d="M449 1565h126v-2048h-126v2048z" />
<glyph unicode="}" horiz-adv-x="995" d="M131 1440h27q211 0 304 -78t93 -252v-209q0 -143 54.5 -203.5t191.5 -60.5q35 0 53 2v-90q-8 0 -24.5 1t-22.5 1q-141 0 -196.5 -61.5t-55.5 -215.5v-174q0 -215 -79 -294.5t-296 -79.5h-49v79q168 2 214 56.5t46 216.5v170q0 154 62.5 233.5t205.5 112.5 q-152 31 -210 112.5t-58 245.5v166q0 137 -54 189.5t-206 56.5v76z" />
<glyph unicode="~" horiz-adv-x="1705" d="M1530 758v-131q-201 -143 -387 -144q-86 0 -191 35l-99 35q-71 25 -104.5 35t-87 21.5t-98.5 11.5q-158 0 -385 -160v133q211 145 387 145q106 0 291 -65q10 -4 40 -14.5t43 -15.5t39 -13t42 -12.5t38.5 -8.5t44 -6t42.5 -2q162 0 385 156z" />
<glyph unicode="&#xa1;" horiz-adv-x="692" d="M346 1399q47 0 82 -34t35 -83t-35 -83t-82 -34q-49 0 -83 34t-34 83q0 47 34 82t83 35zM297 1030h98l58 -782q6 -86 6 -119q0 -147 -113 -147t-113 147q0 51 7 119z" />
<glyph unicode="&#xa2;" d="M559 1231h94v-201h29q127 0 268 -47v-301h-92l-33 213q-68 41 -157 41h-15v-842q96 0 172 39l33 223h92v-311q-113 -43 -272 -43h-25v-203h-94v207q-197 27 -312.5 161t-115.5 337q0 209 114.5 348t313.5 172v207zM559 930q-121 -35 -186.5 -144.5t-65.5 -279.5 q0 -158 67.5 -266.5t184.5 -141.5v832z" />
<glyph unicode="&#xa3;" d="M854 1087v193q-55 18 -106 18q-154 0 -215.5 -110.5t-61.5 -362.5q0 -68 2 -104h385v-96h-385v-27q0 -319 -205 -446l4 -7q96 10 140 11h624v-156h-960v117q137 39 182 134t45 302v72h-147v96h145q-4 86 -4 125q0 250 80 371q55 82 147 132t195 50q143 0 232 -60.5 t89 -148.5q0 -47 -33.5 -79t-86.5 -32q-31 0 -66 8z" />
<glyph unicode="&#xa4;" d="M1071 47q-209 -72 -362 -72q-440 0 -512 533h-168l20 86h139q-2 39 -2 84q0 51 7 129h-164l20 86h156q45 242 183 374t339 132q129 0 344 -70v-315h-100l-35 198l-29 37q-92 53 -186 54q-139 0 -217 -98.5t-113 -311.5h465l-20 -86h-453q-4 -106 -4 -119q0 -51 2 -94h399 l-20 -86h-373q29 -229 108.5 -331.5t239.5 -102.5q70 0 154 26l33 33l49 238h100v-324z" />
<glyph unicode="&#xa5;" d="M-12 1374h434v-82l-107 -12l-18 -23l287 -561l313 545l-18 29l-113 22v82h379v-82l-113 -26l-225 -394h295v-86h-350l-121 -213h471v-86h-463v-364l35 -29l147 -10v-84h-528v84l141 10l39 29v364h-444v86h442l-109 213h-333v86h278l-203 400l-116 20v82z" />
<glyph unicode="&#xa6;" horiz-adv-x="1024" d="M449 1432h126v-758h-126v758zM449 408h126v-758h-126v758z" />
<glyph unicode="&#xa7;" horiz-adv-x="1024" d="M831 1423v-264h-92l-20 164q-111 61 -197 61q-90 0 -148.5 -50t-58.5 -124q0 -25 6.5 -45t22.5 -39.5t30.5 -32t47.5 -31t53 -28.5l68 -33l73 -34q279 -137 279 -340q0 -106 -66.5 -195.5t-183.5 -136.5q213 -96 213 -272q0 -135 -103.5 -222.5t-271.5 -87.5 q-143 0 -301 64l-4 264h101l26 -184q98 -53 197 -54q94 0 152.5 48.5t58.5 121.5q0 23 -4 42.5t-16.5 37t-21.5 31.5t-34 31l-39 26q-14 10 -49 27.5l-53 26.5l-64 29l-67 32q-236 111 -236 332q0 215 242 319q-106 53 -156.5 116.5t-50.5 152.5q0 141 101.5 217.5 t291.5 76.5q133 0 274 -47zM457 868q-178 -80 -178 -235q0 -98 68.5 -165t223.5 -136q172 115 172 250q1 180 -286 286z" />
<glyph unicode="&#xa8;" horiz-adv-x="1024" d="M322 1415q43 0 72.5 -29.5t29.5 -74.5q0 -43 -29.5 -73t-72.5 -30t-74 30t-31 73q0 45 31 74.5t74 29.5zM702 1415q43 0 73 -29.5t30 -74.5q0 -43 -30 -73t-73 -30t-73.5 30t-30.5 73q0 45 30.5 74.5t73.5 29.5z" />
<glyph unicode="&#xa9;" horiz-adv-x="1843" d="M928 1401q-293 0 -496 -207q-207 -213 -207 -498q0 -291 207 -497q211 -207 494 -207q291 0 491 207q209 215 209 497q0 293 -207 500q-204 205 -491 205zM928 1487q156 0 303 -62.5t258 -175.5q225 -229 225 -561q0 -154 -62.5 -299t-178.5 -260q-227 -223 -558 -223 q-315 0 -546.5 231.5t-231.5 558.5q0 322 230 555q111 113 257 174.5t304 61.5zM1247 260q-147 -51 -301 -51q-217 0 -355 135t-138 348q0 215 139 349.5t366 134.5q139 0 289 -48v-245h-88l-31 153q-76 45 -159 45q-145 0 -241.5 -109.5t-96.5 -277.5t94 -279.5t233 -111.5 q61 0 175 41l26 172h88v-256z" />
<glyph unicode="&#xaa;" horiz-adv-x="778" d="M514 768q-145 -94 -252 -94q-90 0 -143 51t-53 133q0 102 96 152.5t352 107.5v45q0 88 -29.5 125t-111.5 37q-53 0 -117 -22v-121h-106q-27 0 -37.5 9t-10.5 36q0 68 85 115t225 47q121 0 175 -49.5t54 -157.5v-416l27 -23l82 -8v-51h-218zM514 815v254 q-176 -47 -244.5 -87t-68.5 -114q0 -53 32.5 -84.5t90.5 -31.5q69 0 190 63z" />
<glyph unicode="&#xab;" horiz-adv-x="905" d="M416 846v-135l-240 -219l240 -222v-133l-336 273v163zM819 846v-135l-239 -219l239 -222v-133l-334 273v163z" />
<glyph unicode="&#xac;" horiz-adv-x="1705" d="M254 858h1198v-502h-115v385h-1083v117z" />
<glyph unicode="&#xad;" horiz-adv-x="653" d="M96 561h461v-137h-461v137z" />
<glyph unicode="&#xae;" horiz-adv-x="1843" d="M928 1403q-291 0 -496 -209q-205 -211 -205 -498q0 -293 205 -497q211 -207 494 -207q291 0 491 207q207 213 207 497q0 295 -205 500q-206 207 -491 207zM928 1487q156 0 303 -62.5t258 -175.5q225 -229 225 -561q0 -154 -62.5 -299t-178.5 -260q-227 -223 -558 -223 q-315 0 -546.5 231.5t-231.5 558.5q0 322 230 555q111 113 257 174.5t304 61.5zM520 1147h432q332 0 332 -223q0 -86 -63.5 -145.5t-184.5 -86.5q94 -14 148 -80q20 -25 33.5 -55.5t23.5 -66t16 -50.5q27 -66 68 -89t131 -23v-74q-86 -16 -127 -16q-94 0 -162 59 q-29 25 -47 61.5t-36.5 92t-28.5 79.5q-31 68 -75 92.5t-128 24.5q-37 0 -59 -2v-307l129 -14v-76h-392v74l109 14v721l-119 20v70zM793 727q18 -2 51 -2q262 0 262 170q0 84 -66.5 130t-193.5 46q-35 0 -53 -2v-342z" />
<glyph unicode="&#xaf;" horiz-adv-x="1024" d="M209 1368h616v-123h-616v123z" />
<glyph unicode="&#xb0;" horiz-adv-x="673" d="M338 1454q117 0 200 -83t83 -199.5t-83 -199.5t-202 -83t-200 82t-81 200.5t83 200.5t200 82zM338 1372q-84 0 -143.5 -58.5t-59.5 -142.5q0 -86 59.5 -144t143.5 -58q86 0 143.5 59t57.5 143t-58.5 142.5t-142.5 58.5z" />
<glyph unicode="&#xb1;" horiz-adv-x="1705" d="M795 1180h118v-344h539v-117h-539v-344h-118v344h-541v117h541v344zM254 158h1198v-117h-1198v117z" />
<glyph unicode="&#xb2;" horiz-adv-x="751" d="M190 645h408l25 105h59v-201h-625v78q258 190 361.5 296.5t103.5 217.5q0 88 -48 136t-132 48q-63 0 -121 -29v-131q-29 -18 -59 -18q-76 0 -76 67.5t83 121t204 53.5q129 0 204.5 -64.5t75.5 -169.5q0 -109 -107.5 -219.5t-355.5 -290.5z" />
<glyph unicode="&#xb3;" horiz-adv-x="751" d="M428 983q113 -8 175.5 -61.5t62.5 -137.5q0 -104 -95.5 -176.5t-246.5 -72.5q-115 0 -192 43t-77 92q0 27 21.5 45t54.5 18q20 0 41 -6l41 -104q51 -29 115 -29q92 0 152.5 55.5t60.5 136.5q0 154 -201 154q-45 0 -72 -4v72h29q102 0 156.5 42t54.5 115.5t-47 116.5 t-125 43q-74 0 -129 -35v-116q-23 -14 -55.5 -14.5t-53 18t-20.5 47.5q0 63 82 113.5t205 50.5q121 0 193.5 -56.5t72.5 -150.5q0 -146 -203 -199z" />
<glyph unicode="&#xb4;" horiz-adv-x="1024" d="M633 1507h203l-299 -389h-103z" />
<glyph unicode="&#xb5;" horiz-adv-x="1120" d="M164 193q-20 -104 -35.5 -218t-23 -175.5t-19.5 -117t-31.5 -78t-54.5 -22.5q-37 0 -58.5 23.5t-21.5 64.5q0 35 24 123l67 252q44 164 79 326l109 514h147l-104 -492q-12 -61 -13 -112q0 -82 42 -128.5t118 -46.5q199 0 258 269l111 510h149l-114 -531q-20 -98 -21 -137 q0 -49 25.5 -78.5t66.5 -29.5q72 0 117 69q14 23 26.5 53.5t18.5 51t14.5 35t20.5 14.5q27 0 26 -37q0 -59 -40 -150q-74 -164 -230 -163q-68 0 -108.5 50t-40.5 140v23q-92 -217 -281 -218q-194 1 -223 216z" />
<glyph unicode="&#xb6;" horiz-adv-x="991" d="M938 1374v-74l-127 -20v-1442h-100v1452h-156v-715h-37q-465 0 -465 396q0 213 117 308t367 95h401z" />
<glyph unicode="&#xb7;" horiz-adv-x="569" d="M284.5 817q53.5 0 91.5 -38t38 -93q0 -53 -38 -91t-91.5 -38t-92 38t-38.5 91q0 55 38.5 93t92 38z" />
<glyph unicode="&#xb8;" horiz-adv-x="1024" d="M481 0h76v-125q18 2 41 2q72 0 113 -39t41 -108q0 -86 -64.5 -136.5t-177.5 -50.5q-66 0 -141 21v74q61 -16 120 -17q66 0 102 23.5t36 64.5q0 76 -103 76q-14 0 -43 -4v219z" />
<glyph unicode="&#xb9;" horiz-adv-x="751" d="M422 1389h37v-764l16 -19l146 -6v-51h-453v53l156 6l16 23v659l-211 -33v52z" />
<glyph unicode="&#xba;" horiz-adv-x="827" d="M413.5 1389q155.5 0 257 -100.5t101.5 -258.5t-101.5 -258t-257 -100t-256 99t-100.5 259t100.5 259.5t256 99.5zM414 1327q-96 0 -154.5 -80t-58.5 -217t59 -217t154 -80q96 0 154.5 80t58.5 217t-59.5 217t-153.5 80z" />
<glyph unicode="&#xbb;" horiz-adv-x="905" d="M94 846l334 -273v-163l-334 -273v133l240 222l-240 219v135zM498 846l336 -273v-163l-336 -273v133l239 222l-239 219v135z" />
<glyph unicode="&#xbc;" horiz-adv-x="1775" d="M399 1386h37v-710l17 -19l139 -4v-49h-432v49l147 6l17 21v616l-203 -30v47zM1262 1374h124l-874 -1374h-125zM1534 776h74v-479h147v-74h-147v-266h-99v266h-415v74zM1509 651l-319 -354h319v354z" />
<glyph unicode="&#xbd;" horiz-adv-x="1775" d="M399 1386h37v-710l17 -19l139 -4v-49h-432v49l147 6l17 21v616l-203 -30v47zM1262 1374h124l-874 -1374h-125zM1241 90h387l25 98h57v-188h-598v72q246 178 345 277.5t99 201.5q0 82 -45 128t-127 46q-59 0 -114 -29v-121q-29 -18 -58 -18q-72 0 -71 66q0 61 77.5 110 t194.5 49q125 0 196.5 -58t71.5 -157q0 -102 -101 -204.5t-339 -272.5z" />
<glyph unicode="&#xbe;" horiz-adv-x="1777" d="M410 1010q106 -8 165.5 -57.5t59.5 -127.5q0 -98 -90 -165.5t-236 -67.5q-109 0 -182.5 39t-73.5 86q0 27 20.5 43t51.5 16q18 0 39 -6l41 -96q53 -29 108 -29q88 0 145.5 52.5t57.5 129.5q0 68 -49 106t-141 38q-33 0 -70 -6v67h29q96 0 147 39t51 109q0 68 -44 108.5 t-120 40.5q-66 0 -122 -33v-108q-20 -14 -52 -14q-33 0 -51 16t-18 45q0 59 76.5 105t193.5 46t186.5 -52t69.5 -140q1 -137 -192 -184zM1262 1374h124l-874 -1374h-125zM1534 776h74v-479h147v-74h-147v-266h-99v266h-415v74zM1509 651l-319 -354h319v354z" />
<glyph unicode="&#xbf;" horiz-adv-x="995" d="M551 1399q47 0 82 -34t35 -83t-35 -83t-82 -34q-49 0 -83 34t-34 83q0 47 34 82t83 35zM498 1030h106v-299q-295 -111 -295 -366q0 -137 74 -213t211 -76h14l80 203q12 2 37 2q59 0 92 -29t33 -80q0 -80 -84 -135t-217 -55q-195 0 -310.5 101t-115.5 269q0 143 92 250 t283 189v239z" />
<glyph unicode="&#xc0;" horiz-adv-x="1308" d="M582 1391h135l491 -1282l123 -25v-84h-465v84l127 10l15 29l-148 391h-483l-146 -391l21 -29l133 -10v-84h-401v84l118 25zM614 1176l-202 -568h413zM356 1911h203l199 -389h-103z" />
<glyph unicode="&#xc1;" horiz-adv-x="1308" d="M582 1391h135l491 -1282l123 -25v-84h-465v84l127 10l15 29l-148 391h-483l-146 -391l21 -29l133 -10v-84h-401v84l118 25zM614 1176l-202 -568h413zM776 1911h203l-299 -389h-102z" />
<glyph unicode="&#xc2;" horiz-adv-x="1308" d="M582 1391h135l491 -1282l123 -25v-84h-465v84l127 10l15 29l-148 391h-483l-146 -391l21 -29l133 -10v-84h-401v84l118 25zM614 1176l-202 -568h413zM590 1911h131l225 -389h-110l-181 288l-178 -288h-112z" />
<glyph unicode="&#xc3;" horiz-adv-x="1308" d="M582 1391h135l491 -1282l123 -25v-84h-465v84l127 10l15 29l-148 391h-483l-146 -391l21 -29l133 -10v-84h-401v84l118 25zM614 1176l-202 -568h413zM883 1853h84q0 -6 1 -16t1 -14q0 -98 -49.5 -157.5t-122.5 -59.5q-70 0 -171.5 53t-123.5 53q-33 0 -53.5 -29.5 t-20.5 -80.5q0 -4 1 -12.5t1 -12.5h-88v20q0 225 174 226q61 0 158.5 -53.5t124.5 -53.5q84 0 84 127v10z" />
<glyph unicode="&#xc4;" horiz-adv-x="1308" d="M582 1391h135l491 -1282l123 -25v-84h-465v84l127 10l15 29l-148 391h-483l-146 -391l21 -29l133 -10v-84h-401v84l118 25zM614 1176l-202 -568h413zM465 1819q43 0 72.5 -30t29.5 -75q0 -43 -29.5 -72.5t-72.5 -29.5t-74 29.5t-31 72.5q0 45 31 75t74 30zM846 1819 q43 0 72.5 -30t29.5 -75q0 -43 -29.5 -72.5t-72.5 -29.5t-74 29.5t-31 72.5q0 45 31 75t74 30z" />
<glyph unicode="&#xc5;" horiz-adv-x="1308" d="M626.5 1972q102.5 0 172 -69.5t69.5 -169.5q0 -102 -69.5 -172t-171.5 -70q-100 0 -170 69.5t-70 172t68.5 171t171 68.5zM629 1880q-61 0 -105.5 -43t-44.5 -106q0 -61 44 -104.5t106 -43.5q63 0 105 43t42 105q0 63 -42 106t-105 43zM582 1391h135l491 -1282l123 -25 v-84h-465v84l127 10l15 29l-148 391h-483l-146 -391l21 -29l133 -10v-84h-401v84l118 25zM614 1176l-202 -568h413z" />
<glyph unicode="&#xc6;" horiz-adv-x="1773" d="M580 1374h1060v-299h-112l-29 174l-29 31h-421v-518h282l31 29l20 149h95v-451h-95l-20 148l-31 31h-282v-574h495l31 33l33 207h106v-334h-993v84l117 10l34 29v391h-477l-245 -391l10 -29l131 -10v-84h-406v84l117 18l715 1149l-19 29l-118 12v82zM872 1284l-423 -674 h423v674z" />
<glyph unicode="&#xc7;" horiz-adv-x="1294" d="M1204 47q-205 -72 -413 -72q-203 0 -349 82q-164 94 -259 262t-95 369q0 319 195.5 515t515.5 196q184 0 405 -70v-315h-114l-31 186l-27 37q-117 53 -229 53q-231 0 -367.5 -157.5t-136.5 -430.5q0 -291 142.5 -454.5t392.5 -163.5q90 0 178 27l32 32l46 228h114v-324z M725 0h76v-125q18 2 41 2q72 0 112.5 -39t40.5 -108q0 -86 -64.5 -136.5t-176.5 -50.5q-66 0 -142 21v74q61 -16 121 -17q66 0 101.5 23.5t35.5 64.5q0 76 -102 76q-14 0 -43 -4v219z" />
<glyph unicode="&#xc8;" horiz-adv-x="1179" d="M68 0v84l116 10l35 29v1128l-35 29l-116 12v82h981v-299h-115l-29 174l-28 31h-474v-518h336l29 29l20 149h97v-451h-97l-20 148l-29 31h-336v-574h549l29 33l35 207h106v-334h-1054zM291 1911h203l198 -389h-102z" />
<glyph unicode="&#xc9;" horiz-adv-x="1179" d="M68 0v84l116 10l35 29v1128l-35 29l-116 12v82h981v-299h-115l-29 174l-28 31h-474v-518h336l29 29l20 149h97v-451h-97l-20 148l-29 31h-336v-574h549l29 33l35 207h106v-334h-1054zM711 1911h202l-299 -389h-102z" />
<glyph unicode="&#xca;" horiz-adv-x="1179" d="M68 0v84l116 10l35 29v1128l-35 29l-116 12v82h981v-299h-115l-29 174l-28 31h-474v-518h336l29 29l20 149h97v-451h-97l-20 148l-29 31h-336v-574h549l29 33l35 207h106v-334h-1054zM524 1911h131l226 -389h-111l-180 288l-178 -288h-113z" />
<glyph unicode="&#xcb;" horiz-adv-x="1179" d="M68 0v84l116 10l35 29v1128l-35 29l-116 12v82h981v-299h-115l-29 174l-28 31h-474v-518h336l29 29l20 149h97v-451h-97l-20 148l-29 31h-336v-574h549l29 33l35 207h106v-334h-1054zM399 1819q43 0 73 -30t30 -75q0 -43 -30 -72.5t-73 -29.5t-73.5 29.5t-30.5 72.5 q0 45 30.5 75t73.5 30zM780 1819q43 0 73 -30t30 -75q0 -43 -30 -72.5t-73 -29.5t-73.5 29.5t-30.5 72.5q0 45 30.5 75t73.5 30z" />
<glyph unicode="&#xcc;" horiz-adv-x="663" d="M72 0v84l131 10l35 29v1128l-35 29l-131 12v82h518v-82l-131 -12l-35 -29v-1128l35 -29l131 -10v-84h-518zM33 1911h203l198 -389h-102z" />
<glyph unicode="&#xcd;" horiz-adv-x="663" d="M72 0v84l131 10l35 29v1128l-35 29l-131 12v82h518v-82l-131 -12l-35 -29v-1128l35 -29l131 -10v-84h-518zM453 1911h202l-299 -389h-102z" />
<glyph unicode="&#xce;" horiz-adv-x="663" d="M72 0v84l131 10l35 29v1128l-35 29l-131 12v82h518v-82l-131 -12l-35 -29v-1128l35 -29l131 -10v-84h-518zM266 1911h131l226 -389h-111l-180 288l-178 -288h-113z" />
<glyph unicode="&#xcf;" horiz-adv-x="663" d="M72 0v84l131 10l35 29v1128l-35 29l-131 12v82h518v-82l-131 -12l-35 -29v-1128l35 -29l131 -10v-84h-518zM141 1819q43 0 73 -30t30 -75q0 -43 -30 -72.5t-73 -29.5t-73.5 29.5t-30.5 72.5q0 45 30.5 75t73.5 30zM522 1819q43 0 73 -30t30 -75q0 -43 -30 -72.5 t-73 -29.5t-73.5 29.5t-30.5 72.5q0 45 30.5 75t73.5 30z" />
<glyph unicode="&#xd0;" horiz-adv-x="1419" d="M573 1374q362 0 559 -181t197 -505q0 -367 -256 -561q-98 -74 -215 -100.5t-285 -26.5h-505v84l116 10l35 29v547h-188v98h188v483l-35 29l-116 12v82h505zM403 670v-576h162q557 0 557 594q0 299 -138 445.5t-419 146.5h-162v-512h340v-98h-340z" />
<glyph unicode="&#xd1;" horiz-adv-x="1460" d="M59 0v84l125 16l37 39v1112l-37 29l-131 12v82h385v-51l699 -1049v963l-37 37l-123 18v82h430v-82l-123 -18l-37 -37v-1237h-135l-780 1163v-1024l37 -39l123 -16v-84h-433zM958 1853h84q0 -6 1 -16t1 -14q0 -98 -49 -157.5t-123 -59.5q-70 0 -171 53t-123 53 q-33 0 -53.5 -29.5t-20.5 -80.5q0 -4 1 -12.5t1 -12.5h-88v20q0 225 174 226q61 0 158.5 -53.5t123.5 -53.5q84 0 84 127v10z" />
<glyph unicode="&#xd2;" horiz-adv-x="1497" d="M750 1409q264 0 450 -180q211 -205 211 -541q0 -227 -104 -405q-86 -147 -232.5 -231.5t-324.5 -84.5q-268 0 -451 176q-211 205 -211 545q0 338 209 541q187 180 453 180zM750 1298q-203 0 -326 -162.5t-123 -447.5q0 -283 123 -447.5t326 -164.5q201 0 323.5 165 t122.5 447.5t-122.5 446t-323.5 163.5zM451 1911h202l199 -389h-102z" />
<glyph unicode="&#xd3;" horiz-adv-x="1497" d="M750 1409q264 0 450 -180q211 -205 211 -541q0 -227 -104 -405q-86 -147 -232.5 -231.5t-324.5 -84.5q-268 0 -451 176q-211 205 -211 545q0 338 209 541q187 180 453 180zM750 1298q-203 0 -326 -162.5t-123 -447.5q0 -283 123 -447.5t326 -164.5q201 0 323.5 165 t122.5 447.5t-122.5 446t-323.5 163.5zM870 1911h203l-299 -389h-102z" />
<glyph unicode="&#xd4;" horiz-adv-x="1497" d="M750 1409q264 0 450 -180q211 -205 211 -541q0 -227 -104 -405q-86 -147 -232.5 -231.5t-324.5 -84.5q-268 0 -451 176q-211 205 -211 545q0 338 209 541q187 180 453 180zM750 1298q-203 0 -326 -162.5t-123 -447.5q0 -283 123 -447.5t326 -164.5q201 0 323.5 165 t122.5 447.5t-122.5 446t-323.5 163.5zM684 1911h131l225 -389h-110l-180 288l-179 -288h-112z" />
<glyph unicode="&#xd5;" horiz-adv-x="1497" d="M750 1409q264 0 450 -180q211 -205 211 -541q0 -227 -104 -405q-86 -147 -232.5 -231.5t-324.5 -84.5q-268 0 -451 176q-211 205 -211 545q0 338 209 541q187 180 453 180zM750 1298q-203 0 -326 -162.5t-123 -447.5q0 -283 123 -447.5t326 -164.5q201 0 323.5 165 t122.5 447.5t-122.5 446t-323.5 163.5zM977 1853h84q0 -6 1 -16t1 -14q0 -98 -49 -157.5t-123 -59.5q-70 0 -171.5 53t-123.5 53q-33 0 -53.5 -29.5t-20.5 -80.5q0 -4 1 -12.5t1 -12.5h-88v20q0 225 174 226q61 0 158.5 -53.5t124.5 -53.5q84 0 84 127v10z" />
<glyph unicode="&#xd6;" horiz-adv-x="1497" d="M750 1409q264 0 450 -180q211 -205 211 -541q0 -227 -104 -405q-86 -147 -232.5 -231.5t-324.5 -84.5q-268 0 -451 176q-211 205 -211 545q0 338 209 541q187 180 453 180zM750 1298q-203 0 -326 -162.5t-123 -447.5q0 -283 123 -447.5t326 -164.5q201 0 323.5 165 t122.5 447.5t-122.5 446t-323.5 163.5zM559 1819q43 0 73 -30t30 -75q0 -43 -30 -72.5t-73 -29.5t-73.5 29.5t-30.5 72.5q0 45 30.5 75t73.5 30zM940 1819q43 0 72.5 -30t29.5 -75q0 -43 -29.5 -72.5t-72.5 -29.5t-73.5 29.5t-30.5 72.5q0 45 30.5 75t73.5 30z" />
<glyph unicode="&#xd7;" horiz-adv-x="1705" d="M381 1169l477 -477l475 477l82 -82l-475 -477l475 -475l-82 -82l-475 475l-477 -475l-80 82l475 475l-475 477z" />
<glyph unicode="&#xd8;" horiz-adv-x="1497" d="M1184 1532l84 -49l-125 -205q268 -215 268 -590q0 -338 -213 -545q-182 -176 -448 -176q-176 0 -340 90l-127 -215l-80 56l129 217q-244 209 -244 573q0 338 211 543q182 178 451 178q156 0 315 -74zM995 1219q-106 80 -245 79q-205 0 -331 -163.5t-126 -446.5 q0 -266 119 -438zM1069 1151l-588 -979q119 -94 269 -94q207 0 331.5 164t124.5 446q0 279 -137 463z" />
<glyph unicode="&#xd9;" horiz-adv-x="1421" d="M51 1374h502v-82l-127 -12l-37 -29v-741q0 -211 86 -309.5t281 -98.5q193 0 278.5 98.5t85.5 309.5v727l-39 37l-123 18v82h433v-82l-123 -18l-37 -37v-745q0 -129 -17.5 -212t-72.5 -149q-129 -156 -424 -156t-424 156q-55 68 -72.5 149.5t-17.5 211.5v759l-35 29 l-117 12v82zM412 1911h202l199 -389h-102z" />
<glyph unicode="&#xda;" horiz-adv-x="1421" d="M51 1374h502v-82l-127 -12l-37 -29v-741q0 -211 86 -309.5t281 -98.5q193 0 278.5 98.5t85.5 309.5v727l-39 37l-123 18v82h433v-82l-123 -18l-37 -37v-745q0 -129 -17.5 -212t-72.5 -149q-129 -156 -424 -156t-424 156q-55 68 -72.5 149.5t-17.5 211.5v759l-35 29 l-117 12v82zM831 1911h203l-299 -389h-102z" />
<glyph unicode="&#xdb;" horiz-adv-x="1421" d="M51 1374h502v-82l-127 -12l-37 -29v-741q0 -211 86 -309.5t281 -98.5q193 0 278.5 98.5t85.5 309.5v727l-39 37l-123 18v82h433v-82l-123 -18l-37 -37v-745q0 -129 -17.5 -212t-72.5 -149q-129 -156 -424 -156t-424 156q-55 68 -72.5 149.5t-17.5 211.5v759l-35 29 l-117 12v82zM645 1911h131l225 -389h-110l-180 288l-179 -288h-112z" />
<glyph unicode="&#xdc;" horiz-adv-x="1421" d="M51 1374h502v-82l-127 -12l-37 -29v-741q0 -211 86 -309.5t281 -98.5q193 0 278.5 98.5t85.5 309.5v727l-39 37l-123 18v82h433v-82l-123 -18l-37 -37v-745q0 -129 -17.5 -212t-72.5 -149q-129 -156 -424 -156t-424 156q-55 68 -72.5 149.5t-17.5 211.5v759l-35 29 l-117 12v82zM520 1819q43 0 73 -30t30 -75q0 -43 -30 -72.5t-73 -29.5t-73.5 29.5t-30.5 72.5q0 45 30.5 75t73.5 30zM901 1819q43 0 73 -30t30 -75q0 -43 -30 -72.5t-73 -29.5t-73.5 29.5t-30.5 72.5q0 45 30.5 75t73.5 30z" />
<glyph unicode="&#xdd;" horiz-adv-x="1200" d="M-27 1374h476v-82l-117 -12l-21 -23l314 -563l344 547l-19 29l-125 22v82h418v-82l-125 -26l-426 -682v-461l33 -29l139 -10v-84h-530v84l139 10l33 29v434l-408 715l-125 20v82zM721 1911h203l-299 -389h-103z" />
<glyph unicode="&#xde;" horiz-adv-x="1142" d="M72 1374h497v-82l-127 -12l-32 -29v-135h112q301 0 435.5 -92t134.5 -317q0 -195 -142.5 -314t-388.5 -119q-45 0 -151 11v-162l32 -29l127 -10v-84h-497v84l118 10l33 29v1128l-33 29l-118 12v82zM410 381q82 -8 135 -8q176 0 267 86t91 252q0 160 -94 236.5t-291 76.5 q-70 0 -108 -4v-639z" />
<glyph unicode="&#xdf;" horiz-adv-x="1247" d="M989 954q-37 4 -49 4q-86 0 -135 -43t-49 -116q0 -25 4 -44.5t18.5 -37t24.5 -28.5t37 -27l42 -26q15 -9 53 -30l58 -31q197 -109 197 -274q0 -133 -95.5 -224t-246.5 -91q-76 0 -236 41v270h103l20 -178q55 -43 125 -43q80 0 128 49t48 123q0 41 -10 70.5t-42 56 t-55.5 42t-82.5 48.5q-74 41 -109 63.5t-73.5 57.5t-54 73.5t-15.5 90.5q0 96 67.5 172.5t182.5 103.5q20 92 20 143q0 113 -59.5 183.5t-153.5 70.5q-156 0 -243 -166q-51 -98 -52 -374v-764l17 -37l135 -10v-72h-469v72l119 14l22 31v803q0 272 139.5 435t362.5 163 q164 0 254 -88.5t90 -249.5q0 -107 -37 -226z" />
<glyph unicode="&#xe0;" horiz-adv-x="1038" d="M684 119q-195 -133 -336 -133q-121 0 -191.5 72.5t-70.5 189.5q0 150 128 220.5t470 152.5v65q0 125 -40 177t-148 52q-76 0 -156 -32v-172h-141q-35 0 -49.5 13t-14.5 50q0 96 112.5 164t301.5 68q162 0 233.5 -70t71.5 -225v-594l37 -33l108 -10v-74h-288zM684 188v361 q-236 -66 -327 -122t-91 -163q0 -76 44 -122t120 -46q94 0 254 92zM221 1507h203l199 -389h-103z" />
<glyph unicode="&#xe1;" horiz-adv-x="1038" d="M684 119q-195 -133 -336 -133q-121 0 -191.5 72.5t-70.5 189.5q0 150 128 220.5t470 152.5v65q0 125 -40 177t-148 52q-76 0 -156 -32v-172h-141q-35 0 -49.5 13t-14.5 50q0 96 112.5 164t301.5 68q162 0 233.5 -70t71.5 -225v-594l37 -33l108 -10v-74h-288zM684 188v361 q-236 -66 -327 -122t-91 -163q0 -76 44 -122t120 -46q94 0 254 92zM641 1507h203l-299 -389h-103z" />
<glyph unicode="&#xe2;" horiz-adv-x="1038" d="M684 119q-195 -133 -336 -133q-121 0 -191.5 72.5t-70.5 189.5q0 150 128 220.5t470 152.5v65q0 125 -40 177t-148 52q-76 0 -156 -32v-172h-141q-35 0 -49.5 13t-14.5 50q0 96 112.5 164t301.5 68q162 0 233.5 -70t71.5 -225v-594l37 -33l108 -10v-74h-288zM684 188v361 q-236 -66 -327 -122t-91 -163q0 -76 44 -122t120 -46q94 0 254 92zM455 1507h131l225 -389h-111l-180 289l-178 -289h-113z" />
<glyph unicode="&#xe3;" horiz-adv-x="1038" d="M684 119q-195 -133 -336 -133q-121 0 -191.5 72.5t-70.5 189.5q0 150 128 220.5t470 152.5v65q0 125 -40 177t-148 52q-76 0 -156 -32v-172h-141q-35 0 -49.5 13t-14.5 50q0 96 112.5 164t301.5 68q162 0 233.5 -70t71.5 -225v-594l37 -33l108 -10v-74h-288zM684 188v361 q-236 -66 -327 -122t-91 -163q0 -76 44 -122t120 -46q94 0 254 92zM748 1450h83q0 -4 1.5 -14.5t1.5 -16.5q0 -98 -49.5 -157.5t-122.5 -59.5q-70 0 -171.5 53.5t-123.5 53.5q-33 0 -53.5 -30t-20.5 -81q0 -4 1 -12t1 -12h-88v20q0 225 174 225q61 0 158.5 -53t124.5 -53 q84 0 84 127v10z" />
<glyph unicode="&#xe4;" horiz-adv-x="1038" d="M684 119q-195 -133 -336 -133q-121 0 -191.5 72.5t-70.5 189.5q0 150 128 220.5t470 152.5v65q0 125 -40 177t-148 52q-76 0 -156 -32v-172h-141q-35 0 -49.5 13t-14.5 50q0 96 112.5 164t301.5 68q162 0 233.5 -70t71.5 -225v-594l37 -33l108 -10v-74h-288zM684 188v361 q-236 -66 -327 -122t-91 -163q0 -76 44 -122t120 -46q94 0 254 92zM330 1415q43 0 72.5 -29.5t29.5 -74.5q0 -43 -29.5 -73t-72.5 -30t-74 30t-31 73q0 45 31 74.5t74 29.5zM711 1415q43 0 72.5 -29.5t29.5 -74.5q0 -43 -29.5 -73t-72.5 -30t-74 30t-31 73q0 45 31 74.5 t74 29.5z" />
<glyph unicode="&#xe5;" horiz-adv-x="1038" d="M512 1599q102 0 172 -69.5t70 -169.5q0 -102 -70 -172t-172 -70q-100 0 -170 69.5t-70 172t69 171t171 68.5zM512 1507q-61 0 -104 -43t-43 -106q0 -61 43 -104.5t104 -43.5q63 0 107.5 43t44.5 105q0 63 -44.5 106t-107.5 43zM856 711v-594l35 -33l108 -10v-74h-288 l-27 119q-195 -133 -336 -133q-121 0 -191.5 72.5t-70.5 189.5q0 150 128 220.5t470 152.5v65q0 125 -40 177t-148 52q-76 0 -156 -32v-172h-141q-35 0 -49.5 13t-14.5 50q0 96 112.5 164t301.5 68q162 0 234.5 -69.5t72.5 -225.5zM684 549q-236 -66 -327 -122t-91 -163 q0 -76 44 -122t120 -46q94 0 254 92v361z" />
<glyph unicode="&#xe6;" horiz-adv-x="1484" d="M340 711h-143q-35 0 -48.5 13t-13.5 50q0 98 108.5 165t288.5 67q193 0 259 -123q111 123 270.5 123t247.5 -105.5t88 -300.5q0 -47 -2 -72h-572v-284q131 -133 307 -133q145 0 267 106v-113q-156 -123 -332 -122q-213 0 -363 149q-195 -145 -362 -145 q-115 0 -183.5 70.5t-68.5 183.5q0 68 23.5 117t61.5 83.5t118 67.5t156.5 55.5t216.5 57.5v65q0 125 -39 177t-144 52q-74 0 -141 -32v-172zM664 188v361q-227 -66 -315.5 -122t-88.5 -163q0 -76 43 -122t117 -46q92 0 244 92zM823 608h389q0 8 1 24.5t1 22.5 q0 260 -184 260q-96 0 -150.5 -78.5t-56.5 -228.5z" />
<glyph unicode="&#xe7;" horiz-adv-x="913" d="M870 86q-172 -100 -333 -100q-209 0 -335 140t-126 368q0 229 135 370.5t350 141.5q145 0 226 -55.5t81 -145.5q0 -49 -31.5 -79t-82.5 -30q-45 0 -92 31v168q-47 29 -99 29q-133 0 -217 -113t-84 -303q0 -188 94.5 -295t253.5 -107q131 0 260 87v-107zM471 0h76v-125 q18 2 41 2q72 0 112.5 -39t40.5 -108q0 -86 -64.5 -136.5t-176.5 -50.5q-66 0 -142 21v74q61 -16 121 -17q66 0 101.5 23.5t35.5 64.5q0 76 -102 76q-14 0 -43 -4v219z" />
<glyph unicode="&#xe8;" horiz-adv-x="1005" d="M918 217v-113q-184 -123 -386 -122q-203 0 -329.5 139t-126.5 364q0 231 133 376t340 145q168 0 268.5 -107.5t100.5 -296.5q0 -41 -3 -63h-663v-23q0 -195 93 -306.5t251 -111.5q144 0 322 119zM735 625v32q0 125 -55 190.5t-158 65.5q-100 0 -176 -80.5t-84 -207.5h473 zM227 1507h203l199 -389h-103z" />
<glyph unicode="&#xe9;" horiz-adv-x="1005" d="M918 217v-113q-184 -123 -386 -122q-203 0 -329.5 139t-126.5 364q0 231 133 376t340 145q168 0 268.5 -107.5t100.5 -296.5q0 -41 -3 -63h-663v-23q0 -195 93 -306.5t251 -111.5q144 0 322 119zM735 625v32q0 125 -55 190.5t-158 65.5q-100 0 -176 -80.5t-84 -207.5h473 zM647 1507h203l-299 -389h-102z" />
<glyph unicode="&#xea;" horiz-adv-x="1005" d="M918 217v-113q-184 -123 -386 -122q-203 0 -329.5 139t-126.5 364q0 231 133 376t340 145q168 0 268.5 -107.5t100.5 -296.5q0 -41 -3 -63h-663v-23q0 -195 93 -306.5t251 -111.5q144 0 322 119zM735 625v32q0 125 -55 190.5t-158 65.5q-100 0 -176 -80.5t-84 -207.5h473 zM461 1507h131l225 -389h-110l-181 289l-178 -289h-112z" />
<glyph unicode="&#xeb;" horiz-adv-x="1005" d="M918 217v-113q-184 -123 -386 -122q-203 0 -329.5 139t-126.5 364q0 231 133 376t340 145q168 0 268.5 -107.5t100.5 -296.5q0 -41 -3 -63h-663v-23q0 -195 93 -306.5t251 -111.5q144 0 322 119zM735 625v32q0 125 -55 190.5t-158 65.5q-100 0 -176 -80.5t-84 -207.5h473 zM336 1415q43 0 72.5 -29.5t29.5 -74.5q0 -43 -29.5 -73t-72.5 -30t-74 30t-31 73q0 45 31 74.5t74 29.5zM717 1415q43 0 72.5 -29.5t29.5 -74.5q0 -43 -29.5 -73t-72.5 -30t-74 30t-31 73q0 45 31 74.5t74 29.5z" />
<glyph unicode="&#xec;" horiz-adv-x="573" d="M307 995h80v-878l35 -33l110 -10v-74h-460v74l108 10l35 33v741h-143v64zM-12 1507h202l199 -389h-102z" />
<glyph unicode="&#xed;" horiz-adv-x="573" d="M307 995h80v-878l35 -33l110 -10v-74h-460v74l108 10l35 33v741h-143v64zM408 1507h202l-299 -389h-102z" />
<glyph unicode="&#xee;" horiz-adv-x="573" d="M307 995h80v-878l35 -33l110 -10v-74h-460v74l108 10l35 33v741h-143v64zM221 1507h131l226 -389h-111l-180 289l-178 -289h-113z" />
<glyph unicode="&#xef;" horiz-adv-x="573" d="M307 995h80v-878l35 -33l110 -10v-74h-460v74l108 10l35 33v741h-143v64zM96 1415q43 0 73 -29.5t30 -74.5q0 -43 -30 -73t-73 -30t-73.5 30t-30.5 73q0 45 30.5 74.5t73.5 29.5zM477 1415q43 0 73 -29.5t30 -74.5q0 -43 -30 -73t-73 -30t-73.5 30t-30.5 73 q0 45 30.5 74.5t73.5 29.5z" />
<glyph unicode="&#xf0;" horiz-adv-x="1081" d="M700 981q-74 117 -163 227l-263 -157l-45 77l240 146l-74 84l-166 14v60l232 69l145 -149l225 135l46 -80l-211 -127q344 -397 344 -733q0 -252 -135.5 -409.5t-337.5 -157.5q-207 0 -338 146t-131 374q0 219 140 357t363 138q47 0 129 -14zM752 883q-100 27 -162 26 q-156 0 -244 -107.5t-88 -306t81 -314t208 -115.5q129 0 209 118.5t80 329.5q0 234 -84 369z" />
<glyph unicode="&#xf1;" horiz-adv-x="1163" d="M61 0v74l111 10l35 33v741h-146v64l238 73h78v-112q223 123 330 123q135 0 205.5 -79t70.5 -233v-577l35 -33l110 -10v-74h-448v74l98 10l35 33v542q0 113 -47 162t-160 49q-98 0 -229 -67v-686l35 -33l98 -10v-74h-449zM786 1450h84q0 -4 1 -14.5t1 -16.5 q0 -98 -49 -157.5t-123 -59.5q-70 0 -171 53.5t-123 53.5q-33 0 -53.5 -30t-20.5 -81q0 -4 1 -12t1 -12h-88v20q0 225 174 225q61 0 158.5 -53t123.5 -53q84 0 84 127v10z" />
<glyph unicode="&#xf2;" horiz-adv-x="1103" d="M551 1006q209 0 343 -143.5t134 -369t-135 -368.5t-342 -143t-341 143t-134 369q0 227 133 369.5t342 142.5zM551 918q-127 0 -205 -114t-78 -310q0 -195 79 -309.5t204 -114.5q127 0 206 113.5t79 310.5q0 195 -79 309.5t-206 114.5zM254 1507h203l198 -389h-102z" />
<glyph unicode="&#xf3;" horiz-adv-x="1103" d="M551 1006q209 0 343 -143.5t134 -369t-135 -368.5t-342 -143t-341 143t-134 369q0 227 133 369.5t342 142.5zM551 918q-127 0 -205 -114t-78 -310q0 -195 79 -309.5t204 -114.5q127 0 206 113.5t79 310.5q0 195 -79 309.5t-206 114.5zM674 1507h203l-299 -389h-103z" />
<glyph unicode="&#xf4;" horiz-adv-x="1103" d="M551 1006q209 0 343 -143.5t134 -369t-135 -368.5t-342 -143t-341 143t-134 369q0 227 133 369.5t342 142.5zM551 918q-127 0 -205 -114t-78 -310q0 -195 79 -309.5t204 -114.5q127 0 206 113.5t79 310.5q0 195 -79 309.5t-206 114.5zM487 1507h131l226 -389h-111 l-180 289l-178 -289h-113z" />
<glyph unicode="&#xf5;" horiz-adv-x="1103" d="M551 1006q209 0 343 -143.5t134 -369t-135 -368.5t-342 -143t-341 143t-134 369q0 227 133 369.5t342 142.5zM551 918q-127 0 -205 -114t-78 -310q0 -195 79 -309.5t204 -114.5q127 0 206 113.5t79 310.5q0 195 -79 309.5t-206 114.5zM780 1450h84q0 -4 1 -14.5t1 -16.5 q0 -98 -49 -157.5t-123 -59.5q-70 0 -171 53.5t-124 53.5q-33 0 -53 -30t-20 -81q0 -4 1 -12t1 -12h-88v20q0 225 174 225q61 0 158.5 -53t123.5 -53q84 0 84 127v10z" />
<glyph unicode="&#xf6;" horiz-adv-x="1103" d="M551 1006q209 0 343 -143.5t134 -369t-135 -368.5t-342 -143t-341 143t-134 369q0 227 133 369.5t342 142.5zM551 918q-127 0 -205 -114t-78 -310q0 -195 79 -309.5t204 -114.5q127 0 206 113.5t79 310.5q0 195 -79 309.5t-206 114.5zM362.5 1415q43.5 0 73 -29.5 t29.5 -74.5q0 -43 -29.5 -73t-73 -30t-74 30t-30.5 73q0 45 30.5 74.5t74 29.5zM743 1415q43 0 73 -29.5t30 -74.5q0 -43 -30 -73t-73 -30t-73.5 30t-30.5 73q0 45 30.5 74.5t73.5 29.5z" />
<glyph unicode="&#xf7;" horiz-adv-x="1705" d="M854 1085q47 0 81 -33.5t34 -80.5t-33 -81t-82 -34t-82 34t-33 81t34 80.5t81 33.5zM254 670h1198v-117h-1198v117zM854 365q47 0 81 -34t34 -81t-33 -81t-82 -34q-47 0 -81 34t-34 81q0 49 34 82t81 33z" />
<glyph unicode="&#xf8;" horiz-adv-x="1103" d="M866 1147l70 -39l-107 -190q199 -150 199 -424q0 -225 -135 -368.5t-342 -143.5q-125 0 -232 57l-118 -203l-66 41l119 209q-178 147 -178 408q0 227 134 369.5t341 142.5q117 0 209 -45zM705 864q-66 51 -154 51q-129 0 -208 -112.5t-79 -308.5q0 -154 62 -281zM760 803 l-379 -662q70 -72 170 -71q129 0 210 113.5t81 310.5q0 182 -82 309z" />
<glyph unicode="&#xf9;" horiz-adv-x="1165" d="M291 1006h78v-678q0 -111 48 -164t150 -53q113 0 238 61v694h-146v64l238 76h78v-889l37 -33l96 -10v-74h-303v115q-188 -135 -332 -135q-133 0 -203.5 79.5t-70.5 233.5v573h-146v64zM285 1507h202l199 -389h-102z" />
<glyph unicode="&#xfa;" horiz-adv-x="1165" d="M291 1006h78v-678q0 -111 48 -164t150 -53q113 0 238 61v694h-146v64l238 76h78v-889l37 -33l96 -10v-74h-303v115q-188 -135 -332 -135q-133 0 -203.5 79.5t-70.5 233.5v573h-146v64zM705 1507h202l-299 -389h-102z" />
<glyph unicode="&#xfb;" horiz-adv-x="1165" d="M291 1006h78v-678q0 -111 48 -164t150 -53q113 0 238 61v694h-146v64l238 76h78v-889l37 -33l96 -10v-74h-303v115q-188 -135 -332 -135q-133 0 -203.5 79.5t-70.5 233.5v573h-146v64zM518 1507h131l225 -389h-110l-180 289l-178 -289h-113z" />
<glyph unicode="&#xfc;" horiz-adv-x="1165" d="M291 1006h78v-678q0 -111 48 -164t150 -53q113 0 238 61v694h-146v64l238 76h78v-889l37 -33l96 -10v-74h-303v115q-188 -135 -332 -135q-133 0 -203.5 79.5t-70.5 233.5v573h-146v64zM393 1415q43 0 73 -29.5t30 -74.5q0 -43 -30 -73t-73 -30t-73.5 30t-30.5 73 q0 45 30.5 74.5t73.5 29.5zM774 1415q43 0 73 -29.5t30 -74.5q0 -43 -30 -73t-73 -30t-73.5 30t-30.5 73q0 45 30.5 74.5t73.5 29.5z" />
<glyph unicode="&#xfd;" horiz-adv-x="1013" d="M-2 985h444v-76l-108 -8l-25 -33l246 -637l256 637l-16 33l-111 8v76h365v-76l-119 -16l-410 -995q-74 -176 -151.5 -260t-175.5 -84q-63 0 -102.5 31.5t-39.5 82.5q0 61 53 111l197 -78q92 100 166 307l-344 889l-125 12v76zM629 1507h202l-299 -389h-102z" />
<glyph unicode="&#xfe;" horiz-adv-x="1128" d="M57 -446v73l109 11l35 32v1700h-160v64l252 73h78v-624q162 123 301 123q170 0 282.5 -133.5t112.5 -346.5q0 -242 -138 -387t-366 -145q-80 0 -192 18v-342l37 -32l129 -11v-73h-480zM371 119q98 -33 176 -33q152 0 246 112.5t94 301.5q0 174 -82 275.5t-217 101.5 q-96 0 -217 -70v-688z" />
<glyph unicode="&#xff;" horiz-adv-x="1013" d="M-2 985h444v-76l-108 -8l-25 -33l246 -637l256 637l-16 33l-111 8v76h365v-76l-119 -16l-410 -995q-74 -176 -151.5 -260t-175.5 -84q-63 0 -102.5 31.5t-39.5 82.5q0 61 53 111l197 -78q92 100 166 307l-344 889l-125 12v76zM317 1415q43 0 73 -29.5t30 -74.5 q0 -43 -30 -73t-73 -30t-73.5 30t-30.5 73q0 45 30.5 74.5t73.5 29.5zM698 1415q43 0 73 -29.5t30 -74.5q0 -43 -30 -73t-73 -30t-73.5 30t-30.5 73q0 45 30.5 74.5t73.5 29.5z" />
<glyph unicode="&#x152;" horiz-adv-x="2033" d="M716.5 1284q-186.5 0 -301 -157.5t-114.5 -434.5q0 -281 114.5 -441.5t301 -160.5t302.5 160t116 436.5t-116 437t-302.5 160.5zM1133 1124v250h770v-299h-115l-29 174l-28 31h-426v-518h286l31 29l20 149h97v-451h-97l-20 148l-31 31h-286v-574h499l31 33l33 207h108 v-334h-843v252q-147 -268 -437 -268q-246 0 -413 172q-195 199 -195 532q0 328 197 531q166 172 411 172q314 -1 437 -267z" />
<glyph unicode="&#x153;" horiz-adv-x="1673" d="M534.5 915q-118.5 0 -192.5 -112.5t-74 -309t75 -310t192 -113.5q119 0 192.5 113.5t73.5 310t-74 309t-192.5 112.5zM1405 625v28q0 125 -48 192.5t-138 67.5q-88 0 -151.5 -75.5t-80.5 -212.5h418zM1587 539h-610v-7q0 -201 90 -312t248 -111q123 0 272 108v-113 q-172 -125 -336 -124q-225 0 -362 204q-152 -205 -357 -204q-199 0 -327.5 143t-128.5 370.5t129 370t327 142.5q244 0 369 -201q119 201 332 201q168 0 262 -105.5t94 -300.5q0 -41 -2 -61z" />
<glyph unicode="&#x178;" horiz-adv-x="1200" d="M-27 1374h476v-82l-117 -12l-21 -23l314 -563l344 547l-19 29l-125 22v82h418v-82l-125 -26l-426 -682v-461l33 -29l139 -10v-84h-530v84l139 10l33 29v434l-408 715l-125 20v82zM410 1819q43 0 72.5 -30t29.5 -75q0 -43 -29.5 -72.5t-72.5 -29.5t-74 29.5t-31 72.5 q0 45 31 75t74 30zM791 1819q43 0 72.5 -30t29.5 -75q0 -43 -29.5 -72.5t-72.5 -29.5t-74 29.5t-31 72.5q0 45 31 75t74 30z" />
<glyph unicode="&#x2c6;" horiz-adv-x="1024" d="M446 1507h132l225 -389h-111l-180 289l-178 -289h-113z" />
<glyph unicode="&#x2dc;" horiz-adv-x="1024" d="M739 1450h84q0 -4 1 -14.5t1 -16.5q0 -98 -49 -157.5t-123 -59.5q-70 0 -171 53.5t-124 53.5q-33 0 -53 -30t-20 -81q0 -4 1 -12t1 -12h-88v20q0 225 174 225q61 0 158.5 -53t123.5 -53q84 0 84 127v10z" />
<glyph unicode="&#x2000;" horiz-adv-x="985" />
<glyph unicode="&#x2001;" horiz-adv-x="1972" />
<glyph unicode="&#x2002;" horiz-adv-x="985" />
<glyph unicode="&#x2003;" horiz-adv-x="1972" />
<glyph unicode="&#x2004;" horiz-adv-x="657" />
<glyph unicode="&#x2005;" horiz-adv-x="491" />
<glyph unicode="&#x2006;" horiz-adv-x="327" />
<glyph unicode="&#x2007;" horiz-adv-x="327" />
<glyph unicode="&#x2008;" horiz-adv-x="245" />
<glyph unicode="&#x2009;" horiz-adv-x="393" />
<glyph unicode="&#x200a;" horiz-adv-x="108" />
<glyph unicode="&#x2010;" horiz-adv-x="653" d="M96 561h461v-137h-461v137z" />
<glyph unicode="&#x2011;" horiz-adv-x="653" d="M96 561h461v-137h-461v137z" />
<glyph unicode="&#x2012;" horiz-adv-x="653" d="M96 561h461v-137h-461v137z" />
<glyph unicode="&#x2013;" horiz-adv-x="1024" d="M0 555h1024v-125h-1024v125z" />
<glyph unicode="&#x2014;" horiz-adv-x="2048" d="M0 430v125h2048v-125h-2048z" />
<glyph unicode="&#x2018;" horiz-adv-x="411" d="M268 1460h88q-164 -182 -163 -315q0 -31 4 -47h131q27 -39 26 -72q0 -53 -33.5 -87t-89.5 -34q-72 0 -115.5 51.5t-43.5 137.5q-1 180 196 366z" />
<glyph unicode="&#x2019;" horiz-adv-x="411" d="M152 905h-89q164 180 164 316q0 31 -4 47h-133q-27 39 -27 75q0 49 34 83t89 34q72 0 117 -51t45 -137q1 -179 -196 -367z" />
<glyph unicode="&#x201a;" horiz-adv-x="411" d="M152 -336h-89q164 186 164 313q0 31 -4 48h-131q-27 39 -26 75q0 51 34.5 85t87.5 34q72 0 116 -51t44 -137q1 -179 -196 -367z" />
<glyph unicode="&#x201c;" horiz-adv-x="825" d="M268 1460h88q-164 -182 -163 -315q0 -31 4 -47h131q27 -39 26 -72q0 -53 -33.5 -87t-89.5 -34q-72 0 -115.5 51.5t-43.5 137.5q-1 180 196 366zM680 1460h88q-164 -182 -164 -315q0 -31 4 -47h133q27 -39 27 -72q0 -53 -34 -87t-89 -34q-72 0 -117 51.5t-45 137.5 q0 180 197 366z" />
<glyph unicode="&#x201d;" horiz-adv-x="825" d="M152 905h-89q164 180 164 316q0 31 -4 47h-133q-27 39 -27 75q0 49 34 83t89 34q72 0 117 -51t45 -137q1 -179 -196 -367zM563 905h-88q164 180 164 316q0 31 -4 47h-131q-27 39 -27 75q0 49 34 83t87 34q72 0 117 -51t45 -137q0 -179 -197 -367z" />
<glyph unicode="&#x201e;" horiz-adv-x="825" d="M152 -336h-89q164 186 164 313q0 31 -4 48h-131q-27 39 -26 75q0 51 34.5 85t87.5 34q72 0 116 -51t44 -137q1 -179 -196 -367zM565 -336h-88q164 186 164 313q0 31 -4 48h-133q-27 39 -27 75q0 51 34 85t89 34q72 0 116 -51t44 -137q0 -181 -195 -367z" />
<glyph unicode="&#x2022;" horiz-adv-x="1208" d="M307 762q0 123 87 209t210 86q121 0 208 -86t87 -209q0 -121 -87 -209t-210 -88t-209 87t-86 210z" />
<glyph unicode="&#x2026;" horiz-adv-x="2048" d="M342 242q53 0 91 -38t38 -93q0 -53 -38 -91t-91 -38q-55 0 -93 36.5t-38 92t39 93.5t92 38zM1024 242q53 0 91 -38t38 -93q0 -53 -38 -91t-91 -38q-55 0 -93 36.5t-38 92t39 93.5t92 38zM1708 242q53 0 91 -38t38 -93q0 -53 -38 -91t-91 -38q-55 0 -93 36.5t-38 92 t39 93.5t92 38z" />
<glyph unicode="&#x202f;" horiz-adv-x="393" />
<glyph unicode="&#x2039;" horiz-adv-x="501" d="M416 846v-135l-240 -219l240 -222v-133l-336 273v163z" />
<glyph unicode="&#x203a;" horiz-adv-x="501" d="M94 846l334 -273v-163l-334 -273v133l240 222l-240 219v135z" />
<glyph unicode="&#x205f;" horiz-adv-x="491" />
<glyph unicode="&#x20ac;" d="M1071 47q-209 -72 -362 -72q-440 0 -512 533h-168l20 86h139q-2 39 -2 84q0 51 7 129h-164l20 86h156q45 242 183 374t339 132q129 0 344 -70v-315h-100l-35 198l-29 37q-92 53 -186 54q-139 0 -217 -98.5t-113 -311.5h465l-20 -86h-453q-4 -106 -4 -119q0 -51 2 -94h399 l-20 -86h-373q29 -229 108.5 -331.5t239.5 -102.5q70 0 154 26l33 33l49 238h100v-324z" />
<glyph unicode="&#x2122;" horiz-adv-x="1683" d="M524 1309v-439l78 -8v-45h-250v43l80 8v441h-106l-17 -13l-12 -82h-55v142h469v-142h-54l-12 82l-14 13h-107zM774 817v45l64 8v428l-66 11v47h209v-25l139 -368l142 366v27h204v-47l-65 -11v-428l65 -10v-43h-219v43l62 10v435l-189 -488h-45l-180 488v-435l63 -8v-45 h-184z" />
<glyph unicode="&#xe000;" horiz-adv-x="985" d="M0 985h985v-985h-985v985z" />
<glyph unicode="&#xfb01;" horiz-adv-x="1175" d="M653 1305l-157 114q-119 -68 -119 -311v-150h422l119 56h67v-897l33 -33l96 -10v-74h-446v74l110 10l37 33v745h-440v-745l35 -33l104 -10v-74h-455v74l109 10l37 33v745h-131v64l131 32v33q0 240 115.5 386.5t283.5 146.5q61 0 99 -30t38 -79q0 -73 -88 -110zM817 1321 q0 45 31 74.5t76 29.5t75.5 -30.5t30.5 -73.5q0 -45 -30.5 -76t-75.5 -31t-76 31t-31 76z" />
<glyph unicode="&#xfb02;" horiz-adv-x="1185" d="M950 1522h45v-1405l35 -33l117 -10v-74h-465v74l109 10l34 33v1249h-92l-71 -53l-152 114q-133 -61 -133 -319v-150h285v-96h-287v-745l35 -33l104 -10v-74h-455v74l109 10l37 33v745h-131v64l131 32v33q0 240 115.5 386.5t283.5 146.5q123 0 137 -101z" />
<glyph unicode="&#xfb03;" horiz-adv-x="1888" d="M1630.5 1450q49.5 0 84 -35t34.5 -84t-34.5 -83t-84 -34t-84 34t-34.5 83q0 51 34.5 85t84 34zM1622 995h78v-878l37 -33l110 -10v-74h-460v74l108 10l35 33v741h-143v64zM716 0v74l109 10l37 33v745h-131v66l131 30v23q0 250 115.5 396.5t300.5 146.5q70 0 114.5 -34 t44.5 -83q0 -80 -84 -102l-186 122q-133 -61 -133 -319v-150h285v-96h-287v-745l35 -33l127 -10v-74h-478zM59 0v74l109 10l37 33v745h-131v66l131 30v23q0 250 115.5 396.5t300.5 146.5q70 0 114.5 -34t44.5 -83q0 -80 -84 -102l-186 122q-133 -61 -133 -319v-150h285v-96 h-287v-745l35 -33l127 -10v-74h-478z" />
<glyph unicode="&#xfb04;" horiz-adv-x="1892" d="M1372 0v74l121 10l35 33v1253h-158v64l250 73h78v-1390l37 -33l117 -10v-74h-480zM716 0v74l109 10l37 33v745h-131v66l131 30v23q0 250 115.5 396.5t300.5 146.5q70 0 114.5 -34t44.5 -83q0 -80 -84 -102l-186 122q-133 -61 -133 -319v-150h285v-96h-287v-745l35 -33 l127 -10v-74h-478zM59 0v74l109 10l37 33v745h-131v66l131 30v23q0 250 115.5 396.5t300.5 146.5q70 0 114.5 -34t44.5 -83q0 -80 -84 -102l-186 122q-133 -61 -133 -319v-150h285v-96h-287v-745l35 -33l127 -10v-74h-478z" />
</font>
</defs>
</svg>
