<?xml version="1.0" standalone="no"?>
<!DOCTYPE svg PUBLIC "-//W3C//DTD SVG 1.1//EN" "http://www.w3.org/Graphics/SVG/1.1/DTD/svg11.dtd" >
<svg xmlns="http://www.w3.org/2000/svg">
<metadata>
This is a custom SVG webfont generated by Font Squirrel.
Copyright   : Copyright 19901993 as an unpublished work by Bitstream Inc  All rights reserved  Confidential
</metadata>
<defs>
<font id="webfontoUUWRJtE" horiz-adv-x="1138" >
<font-face units-per-em="2048" ascent="1638" descent="-410" />
<missing-glyph horiz-adv-x="569" />
<glyph unicode=" "  horiz-adv-x="569" />
<glyph unicode="&#x09;" horiz-adv-x="569" />
<glyph unicode="&#xa0;" horiz-adv-x="569" />
<glyph unicode="!" horiz-adv-x="692" d="M539 1133l-207 -783h-101l93 783q16 143 49 204.5t110 61.5q90 0 90 -92q1 -45 -34 -174zM246 215q49 0 84 -35t35 -82t-35 -81.5t-84 -34.5q-47 0 -81 34.5t-34 81.5t34 82t81 35z" />
<glyph unicode="&#x22;" horiz-adv-x="677" d="M190 864h-32l-64 457q-4 29 -4 41q0 100 84 100q86 0 86 -100q0 -8 -4 -41zM518 864h-31l-65 457q-4 29 -4 39q0 102 86 102q84 0 84 -100q0 -25 -2 -41z" />
<glyph unicode="#" horiz-adv-x="1525" d="M758 1454l96 -37l-162 -454h316l163 491l97 -37l-160 -454h285v-97h-318l-100 -299h334v-96h-367l-172 -518l-96 33l164 485h-314l-170 -518l-96 33l168 485h-295v96h326l98 299h-324v97h357zM662 866l-101 -299h305l105 299h-309z" />
<glyph unicode="$" d="M692 1522h84l-26 -146q137 -2 303 -61l-64 -299h-92l10 196l-24 35q-70 31 -152 37l-98 -516q168 -61 246.5 -144t78.5 -202q0 -170 -124.5 -282.5t-348.5 -139.5l-41 -209h-86l41 209q-207 8 -356 90l66 313h106l-20 -229l18 -24q106 -51 205 -56l102 533 q-154 70 -226.5 150.5t-72.5 189.5q0 158 123 273.5t320 129.5zM645 1282q-119 -23 -186.5 -94.5t-67.5 -167.5q0 -141 162 -211zM602 588l-94 -492q131 25 200.5 96.5t69.5 178.5q0 80 -42 131t-134 86z" />
<glyph unicode="%" horiz-adv-x="1744" d="M506 1399q113 0 177.5 -76t64.5 -211q0 -215 -105 -385q-115 -186 -301 -186q-113 0 -176.5 75.5t-63.5 210.5q0 217 103 385q115 187 301 187zM1378 1374h125l-1141 -1374h-124zM489 1325q-100 0 -167 -149q-80 -176 -80 -381q0 -180 110 -181q104 0 170 148 q80 174 80 381q0 182 -113 182zM1401 834q113 0 177 -76t64 -211q0 -213 -104 -383q-117 -188 -301 -189q-113 0 -176.5 76t-63.5 213q0 215 103 383q115 187 301 187zM1384 762q-100 0 -167 -150q-80 -176 -80 -381q0 -182 110 -182q102 0 170 150q80 174 80 381 q0 182 -113 182z" />
<glyph unicode="&#x26;" horiz-adv-x="1441" d="M1362 737v-86l-145 -18q-131 -248 -259 -371q119 -178 312 -178h22v-82l-145 -8q-18 -2 -51 -2q-74 0 -127.5 35.5t-126.5 124.5q-207 -174 -451 -175q-156 0 -253 94.5t-97 239.5q0 260 352 439q-113 160 -112 272q0 158 124.5 268.5t315.5 110.5q137 0 218 -75t81 -193 q0 -129 -106.5 -230.5t-311.5 -165.5l305 -405q84 78 178 266l-24 33l-100 20v86h401zM793 215l-353 471q-111 -70 -163 -143.5t-52 -169.5q0 -119 76 -197t193 -78q154 0 299 117zM555 793q297 106 297 325q0 88 -48 139.5t-126 51.5q-104 0 -174 -67.5t-70 -168.5 q0 -122 121 -280z" />
<glyph unicode="'" horiz-adv-x="348" d="M190 864h-32l-66 457q-2 14 -2 39q0 102 84 102q86 0 86 -100q0 -8 -4 -41z" />
<glyph unicode="(" horiz-adv-x="858" d="M940 1470l-16 -86q-168 -23 -289 -159q-131 -145 -193 -353q-113 -375 -112 -624q0 -201 74.5 -315.5t213.5 -137.5l-16 -86q-195 14 -317.5 172t-122.5 400q0 276 121 614q82 225 264 393q178 166 393 182z" />
<glyph unicode=")" horiz-adv-x="858" d="M203 1470q195 -16 316.5 -170.5t121.5 -388.5q0 -322 -100.5 -587t-282.5 -433q-182 -170 -393 -182l16 86q168 23 289 160q139 158 205 395q98 356 98 594q0 193 -74.5 306.5t-212.5 133.5z" />
<glyph unicode="*" horiz-adv-x="1024" d="M662 1470l57 -124l-115 -256h-29l-18 256zM872 1206l136 -37l-115 -114l-266 -17l-4 27zM604 1006l172 -166l-20 -148l-127 53l-49 246zM541 1006l18 -15l-143 -248l-148 -51l35 148zM352 1206l195 -143l-12 -25l-263 17l-69 114z" />
<glyph unicode="+" horiz-adv-x="1705" d="M795 1221h118v-551h539v-117h-539v-553h-118v553h-541v117h541v551z" />
<glyph unicode="," horiz-adv-x="569" d="M-117 -346l13 67q246 47 280 293h-131q-18 27 -18 60q0 61 42 102t103 41q63 0 97 -37t34 -104q0 -147 -120 -274.5t-300 -147.5z" />
<glyph unicode="-" horiz-adv-x="653" d="M74 561h458l-26 -137h-459z" />
<glyph unicode="." horiz-adv-x="569" d="M174 233q51 0 87 -34.5t36 -87.5q0 -51 -36 -86t-87 -35q-49 0 -85 34.5t-36 86t35 87t86 35.5z" />
<glyph unicode="/" horiz-adv-x="985" d="M950 1374h125l-1177 -1564h-125z" />
<glyph unicode="0" d="M705 1399q174 0 275 -123t101 -338q0 -362 -172 -651q-186 -311 -477 -312q-174 0 -275.5 123t-101.5 338q0 365 172 654q185 309 478 309zM893 975q0 328 -213 328q-176 0 -297 -259q-61 -129 -107 -356q-33 -164 -32 -287q0 -328 207 -327q180 0 303 256 q59 127 106 358q33 162 33 287z" />
<glyph unicode="1" d="M778 1399h49l-243 -1272l18 -29l178 -10v-88h-612v88l213 12l33 35l204 1063l-20 21l-297 -39v84z" />
<glyph unicode="2" d="M188 162h617l69 174h93l-64 -336h-948l25 129l312 222q116 85 238.5 189.5t185 183.5t102.5 168t40 181q0 106 -58.5 163.5t-164.5 57.5q-90 0 -193 -49l-41 -219q-49 -31 -98 -31q-43 0 -69.5 23.5t-26.5 60.5q0 117 147.5 218.5t356.5 101.5q164 0 256 -82t92 -225 q0 -88 -39 -174.5t-102.5 -167t-180 -180t-238.5 -189.5z" />
<glyph unicode="3" d="M653 731q150 -6 232 -76.5t82 -189.5q0 -104 -57.5 -203.5t-161.5 -171.5q-168 -113 -381 -113q-160 0 -262.5 63.5t-102.5 158.5q0 53 30.5 83.5t82.5 30.5q35 0 71 -14l31 -176q80 -49 172 -49q164 0 273.5 105.5t109.5 260.5q0 104 -65.5 164t-184.5 60q-57 0 -123 -9 l17 115q18 -2 51 -2q172 0 277.5 90t105.5 225q0 100 -61.5 160t-167.5 60q-98 0 -195 -66l-29 -197q-70 -25 -96 -24q-39 0 -64.5 26.5t-25.5 69.5q0 106 142.5 196.5t344.5 90.5q164 0 257.5 -76t93.5 -205q0 -133 -104 -236.5t-292 -150.5z" />
<glyph unicode="4" d="M887 1386h121l-164 -856h229l-26 -133h-230l-90 -473h-158l90 473h-659l25 133zM807 1163l-629 -633h508z" />
<glyph unicode="5" d="M346 1374h717l-29 -155h-596l-84 -418q129 35 230 35q176 0 274 -88.5t98 -241.5q0 -102 -51 -204.5t-143 -178.5q-180 -150 -430 -150q-154 0 -239 51.5t-85 137.5q0 51 33 85t84 34q23 0 51 -7l53 -174q68 -31 150 -30q162 0 277.5 114.5t115.5 272.5q0 127 -88 195.5 t-256 68.5q-70 0 -217 -12z" />
<glyph unicode="6" d="M999 1466l5 -104q-262 -27 -443.5 -177.5t-245.5 -391.5q174 129 353 129q162 0 260 -100.5t98 -272.5q0 -236 -162 -405t-395 -169q-184 0 -293.5 125t-109.5 344q0 221 90 421t260 354q223 200 583 247zM289 688q-39 -127 -39 -262q0 -170 64.5 -263t177.5 -93 q145 0 247.5 123.5t102.5 312.5q0 293 -262 293q-158 0 -291 -111z" />
<glyph unicode="7" d="M276 1374h945l-17 -82l-934 -1323l-8 -45h-170l916 1295h-633l-68 -187h-96z" />
<glyph unicode="8" d="M666 756q109 51 170 142t61 198q0 100 -57.5 157.5t-155.5 57.5q-125 0 -211 -82t-86 -207q0 -82 67 -142.5t212 -123.5zM748 723q139 -68 199.5 -135.5t60.5 -167.5q0 -190 -158 -322.5t-408 -132.5q-186 0 -295.5 90t-109.5 234q0 131 89 240.5t259 187.5 q-170 86 -170 260q0 178 141.5 301t352.5 123q162 0 257 -80t95 -213q0 -125 -80.5 -225.5t-232.5 -159.5zM455 672q-127 -72 -186.5 -154t-59.5 -192q0 -119 78 -189.5t205 -70.5q141 0 236 89t95 214q0 96 -69.5 148t-266.5 140q-22 11 -32 15z" />
<glyph unicode="9" d="M846 705q39 166 39 276q0 158 -67.5 243t-186.5 85q-139 0 -243.5 -129t-104.5 -310q0 -137 70.5 -216t191.5 -79q156 1 301 130zM94 -115l-37 86q516 186 744 602q-203 -113 -350 -112q-158 0 -257.5 101.5t-99.5 266.5q0 123 54.5 239t150.5 198q162 133 365 133 q195 0 300 -109.5t105 -312.5q0 -356 -255 -647t-720 -445z" />
<glyph unicode=":" horiz-adv-x="653" d="M358.5 977q51.5 0 86 -34t34.5 -87q0 -51 -34.5 -87t-86.5 -36q-49 0 -84.5 36t-35.5 87t34.5 86t86 35zM217 233q53 0 88 -34.5t35 -87.5q0 -51 -36 -86t-87 -35q-49 0 -85 34.5t-36 86t35 87t86 35.5z" />
<glyph unicode=";" horiz-adv-x="653" d="M358.5 977q51.5 0 86 -34t34.5 -87q0 -51 -34.5 -87t-86.5 -36q-49 0 -84.5 36t-35.5 87t34.5 86t86 35zM-66 -346l13 67q246 47 280 293h-131q-18 27 -18 60q0 61 42 102t103 41q63 0 97 -37t34 -104q0 -147 -120 -274.5t-300 -147.5z" />
<glyph unicode="&#x3c;" horiz-adv-x="1705" d="M1442 1145v-127l-1000 -408l1000 -405v-129l-1178 483v103z" />
<glyph unicode="=" horiz-adv-x="1705" d="M254 860h1198v-117h-1198v117zM254 477h1198v-117h-1198v117z" />
<glyph unicode="&#x3e;" horiz-adv-x="1705" d="M264 1145l1178 -483v-103l-1178 -483v129l1000 405l-1000 408v127z" />
<glyph unicode="?" horiz-adv-x="995" d="M446 590l-47 -240h-106l57 299q182 63 277.5 178t95.5 263q0 215 -242 215h-6l-123 -203q-14 -2 -37 -2q-104 0 -104 80q0 90 96 154.5t244 64.5q170 0 265 -78t95 -215q0 -334 -465 -516zM309 215q49 0 83 -35t34 -82t-34 -81.5t-83 -34.5q-47 0 -81.5 34.5t-34.5 81.5 t34.5 82t81.5 35z" />
<glyph unicode="@" horiz-adv-x="1929" d="M1133 922q-10 0 -22.5 1t-19 2t-10.5 1q-135 0 -234 -131t-99 -326q0 -227 170 -227q106 0 215 135l84 430zM1128 289q-166 -172 -299 -172q-111 0 -183.5 90t-72.5 237q0 195 115 351q74 100 180.5 156.5t214.5 56.5q96 0 201 -56l37 47h111q-16 -41 -56 -219l-80 -352 q-16 -68 -16 -113q0 -41 23.5 -64.5t62.5 -23.5q90 0 180 107q143 174 143.5 428t-161.5 410.5t-432 156.5q-319 0 -541 -205q-254 -236 -254 -596q0 -336 202 -538.5t531 -202.5q281 0 537 150l28 -70q-324 -180 -622 -180q-350 0 -592 231q-229 219 -229 586 q0 412 297 680q121 111 285.5 172t342.5 61q324 0 513.5 -178t189.5 -475q0 -227 -113 -404q-74 -115 -182.5 -181t-208.5 -66q-152 0 -152 157v19z" />
<glyph unicode="A" horiz-adv-x="1241" d="M707 1386h135l219 -1261l35 -37l100 -10v-78h-448v78l120 10l15 29l-64 391h-497l-220 -391l17 -29l125 -10v-78h-406v78l113 12zM707 1186l-334 -590h428z" />
<glyph unicode="B" horiz-adv-x="1204" d="M172 1374h526q211 0 312.5 -61.5t101.5 -196.5q0 -143 -93 -242.5t-269 -144.5q324 -16 323 -272q0 -457 -618 -457h-512v78l129 12l34 29l218 1136l-21 31l-131 10v78zM408 756q68 -6 104 -6q186 0 291.5 94t105.5 260q0 190 -291 190q-39 0 -112 -6zM281 90 q72 -6 135 -6q457 0 456 358q0 117 -78.5 172.5t-244.5 55.5q-41 0 -158 -11z" />
<glyph unicode="C" horiz-adv-x="1236" d="M1274 1329l-57 -315h-87v196l-16 39q-98 53 -215 54q-209 0 -364 -140q-121 -109 -188.5 -277.5t-67.5 -367.5q0 -213 111.5 -329.5t314.5 -116.5q80 0 176 28l39 35l90 236h88l-56 -324q-219 -72 -407 -72q-254 0 -402.5 154t-148.5 414q0 199 84 377t235 303 q213 176 500 176q174 0 371 -70z" />
<glyph unicode="D" horiz-adv-x="1374" d="M172 1374h465q313 0 476 -134t163 -388q0 -178 -65.5 -342t-186.5 -283q-229 -227 -649 -227h-432v78l131 12l32 29l220 1136l-21 31l-133 10v78zM510 1280l-223 -1184h112q340 0 504 215q80 104 127 256t47 307q0 207 -112.5 306.5t-343.5 99.5h-111z" />
<glyph unicode="E" horiz-adv-x="1118" d="M180 1374h953l-58 -299h-98v174l-23 31h-440l-100 -518h311l37 29l45 149h88l-86 -451h-84l8 148l-24 29h-314l-110 -572h522l37 33l69 207h95l-66 -334h-991v78l129 12l35 29l219 1136l-23 31l-131 10v78z" />
<glyph unicode="F" horiz-adv-x="1042" d="M176 1374h930l-64 -321h-98v194l-20 33h-414l-102 -541h288l37 31l47 148h90l-88 -451h-88l8 147l-24 31h-289l-100 -522l28 -31l144 -10v-82h-514v78l129 10l33 29l219 1138l-21 29l-131 12v78z" />
<glyph unicode="G" horiz-adv-x="1359" d="M1309 1339l-60 -325h-108l6 192l-19 43q-102 51 -206 51q-209 0 -375 -141q-125 -106 -196.5 -275t-71.5 -368t113.5 -319.5t295.5 -120.5q78 0 215 28l78 437l-20 28l-134 11v79h504v-79l-131 -11l-33 -28l-96 -494q-254 -72 -432 -72q-254 0 -406.5 157t-152.5 413 q0 199 87 376t245 300q229 180 528 180q215 -1 369 -62z" />
<glyph unicode="H" horiz-adv-x="1458" d="M172 1374h500v-78l-135 -10l-31 -31l-96 -489h667l97 489l-25 31l-131 10v78h500v-78l-136 -10l-32 -31l-217 -1136l20 -29l131 -12v-78h-496v78l134 12l30 29l105 553h-666l-106 -553l24 -29l131 -12v-78h-497v78l131 12l32 29l220 1136l-21 31l-133 10v78z" />
<glyph unicode="I" horiz-adv-x="638" d="M182 1374h500v-78l-135 -10l-33 -31l-219 -1136l24 -29l134 -12v-78h-500v78l131 12l33 29l219 1136l-23 31l-131 10v78z" />
<glyph unicode="J" horiz-adv-x="915" d="M467 1374h498v-78l-134 -10l-32 -31l-137 -731q-55 -297 -162 -423t-334 -126q-147 0 -252 50l68 344h102v-260l25 -27q35 -8 71 -8q133 0 191.5 98t105.5 344l144 739l-23 31l-131 10v78z" />
<glyph unicode="K" horiz-adv-x="1280" d="M168 1374h498v-78l-134 -10l-32 -31l-111 -559h60l563 555l-13 33l-143 10v80h496v-82l-170 -12l-539 -526l291 -566q33 -66 71.5 -87t129.5 -21h41v-78q-137 -10 -185 -10q-106 0 -148 27.5t-89 121.5l-238 469h-143l-94 -491l26 -29l133 -12v-78h-499v78l131 12l32 29 l220 1136l-23 31l-131 10v78z" />
<glyph unicode="L" horiz-adv-x="1019" d="M172 1374h498v-78l-133 -10l-33 -31l-225 -1161h434l37 33l79 246h99l-72 -373h-913v78l131 10l32 31l220 1136l-21 31l-133 10v78z" />
<glyph unicode="M" horiz-adv-x="1718" d="M172 1374h418v-55l186 -1043l574 1035v63h426v-78l-129 -10l-33 -31l-217 -1136l20 -29l131 -12v-78h-485v78l147 12l21 29l219 1149l-707 -1268h-90l-221 1262l-213 -1143l31 -29l121 -12v-78h-426v78l129 12l32 29l218 1136l-23 31l-129 10v78z" />
<glyph unicode="N" horiz-adv-x="1398" d="M166 1374h352v-51l490 -1038l188 970l-20 31l-132 10v78h431v-78l-132 -10l-32 -31l-240 -1255h-119l-538 1139l-199 -1020l23 -29l131 -12v-78h-432v78l131 12l32 29l219 1136l-20 31l-133 10v78z" />
<glyph unicode="O" horiz-adv-x="1449" d="M829 1397q197 0 322 -94q104 -76 161.5 -193t57.5 -250q0 -350 -188 -596q-106 -137 -252 -213t-303 -76q-238 0 -390.5 156t-152.5 399q0 326 192 578q104 137 250.5 213t302.5 76zM1169 858q0 207 -96 326t-258 119q-215 0 -373 -232q-162 -238 -161 -553 q0 -205 97 -324.5t257 -119.5q215 0 373 231q161 234 161 553z" />
<glyph unicode="P" horiz-adv-x="1110" d="M172 1374h436q205 0 307 -37q90 -33 143.5 -110.5t53.5 -175.5q0 -238 -170 -386.5t-455 -148.5q-16 0 -127 4l-77 -401l14 -29l131 -12v-78h-485v78l131 12l32 29l220 1136l-23 31l-131 10v78zM508 1282l-129 -666q53 -4 78 -4q221 0 343 107.5t122 300.5 q0 139 -81 202.5t-249 63.5q-23 0 -84 -4z" />
<glyph unicode="Q" horiz-adv-x="1449" d="M1434 -164v-69q-201 -94 -328 -95q-125 0 -211 74t-158 238q-86 -10 -119 -11q-227 0 -381.5 159t-154.5 396q0 324 194 580q106 137 252 213t306 76q186 0 317 -97q102 -76 160.5 -191.5t58.5 -250.5q0 -272 -118.5 -487t-333.5 -332q74 -143 134 -199.5t165 -56.5 q88 0 217 53zM279 518q0 -201 98 -322.5t258 -121.5q215 0 373 231q162 240 161 553q0 207 -95 326t-257 119q-217 0 -375 -232q-76 -111 -119.5 -258.5t-43.5 -294.5z" />
<glyph unicode="R" horiz-adv-x="1232" d="M156 1374h518q221 0 326.5 -71.5t105.5 -227.5q0 -158 -106.5 -270.5t-301.5 -155.5q29 -6 53.5 -15t45.5 -26l34 -27q14 -11 28.5 -38t23 -39t19.5 -48t16 -50l16 -60l16 -61q33 -121 79 -163t161 -42h18v-78q-94 -12 -143 -12q-131 0 -188 51q-45 39 -69 101.5 t-48 174.5l-6 31q-31 139 -58 178q-31 45 -86 70q-33 16 -118 16q-27 0 -113 -4l-96 -491l24 -29l133 -10v-78h-499v78l131 10l32 29l220 1138l-23 29l-145 12v78zM397 707q27 -2 76 -2q209 0 323.5 91t114.5 251q0 123 -76.5 179t-238.5 56q-27 0 -88 -4z" />
<glyph unicode="S" horiz-adv-x="1099" d="M1047 1337l-66 -311h-90l8 203l-25 37q-86 39 -178 39q-141 0 -232 -80t-91 -195q0 -68 34.5 -117t72.5 -70.5t143 -70.5l20 -10q164 -78 235.5 -151.5t71.5 -196.5q0 -188 -155.5 -313.5t-399.5 -125.5q-203 0 -377 95l68 325h107l-21 -235l21 -27q123 -59 227 -59 q156 0 253 82t97 206q0 20 -3 40t-6 34.5t-13.5 29.5t-15.5 24.5t-22.5 22.5t-23.5 18.5t-31 18.5l-31 17q-7 4 -38 20l-39 19q-98 49 -148.5 80t-103.5 75t-74.5 95t-21.5 117q0 176 141 300t365 124q182 -1 342 -60z" />
<glyph unicode="T" horiz-adv-x="1157" d="M147 1374h1102l-61 -305h-111l8 191l-22 30h-291l-225 -1171l26 -29l134 -12v-78h-500v78l131 12l33 29l219 1171h-289l-35 -30l-65 -191h-113z" />
<glyph unicode="U" horiz-adv-x="1359" d="M150 1374h497v-78l-133 -10l-33 -31l-145 -745q-18 -88 -19 -154q0 -125 75 -189.5t216 -64.5q186 0 281.5 97.5t136.5 310.5l145 745l-24 31l-133 10v78h428v-78l-129 -10l-35 -31l-150 -763q-18 -90 -29.5 -135.5t-43 -111t-78.5 -114.5q-150 -154 -426 -154 q-205 0 -312.5 86.5t-107.5 247.5q0 53 25 181l147 763l-22 31l-131 10v78z" />
<glyph unicode="V" horiz-adv-x="1208" d="M63 1374h429v-78l-115 -10l-15 -31l162 -1067l555 1067l-16 31l-119 10v78h385v-78l-108 -12l-703 -1294h-127l-198 1259l-33 37l-97 10v78z" />
<glyph unicode="W" horiz-adv-x="1839" d="M104 1374h439v-78l-117 -10l-14 -31l75 -964l508 1083h133l115 -1098l449 979l-17 31l-121 10v78h394v-78l-119 -12l-600 -1284h-117l-121 1124l-522 -1124h-129l-102 1249l-35 37l-99 10v78z" />
<glyph unicode="X" horiz-adv-x="1165" d="M111 1374h497v-78l-135 -10l-31 -31l183 -424l372 424l-12 31l-117 10v78h426v-78l-143 -10l-479 -549l270 -618l21 -29l131 -12v-78h-496v78l133 12l33 29l-201 471l-422 -471l21 -29l133 -12v-78h-465v78l133 12l35 29l510 577l-246 559l-20 31l-131 10v78z" />
<glyph unicode="Y" horiz-adv-x="1150" d="M63 1374h498v-78l-133 -10l-33 -31l185 -579l428 579l-21 31l-131 10v78h459v-78l-135 -10l-33 -31l-520 -680l-90 -456l26 -29l133 -12v-78h-497v78l129 12l32 29l86 438l-229 698l-20 31l-134 10v78z" />
<glyph unicode="Z" d="M262 1374h909l-18 -86l-969 -1188h586l29 27l82 244h100l-70 -371h-962l14 84l967 1192h-508l-45 -27l-70 -192h-106z" />
<glyph unicode="[" horiz-adv-x="862" d="M430 1450h485l-16 -88h-324l-296 -1546h323l-16 -86h-486z" />
<glyph unicode="\" horiz-adv-x="985" d="M188 1374l811 -1564h-114l-813 1564h116z" />
<glyph unicode="]" horiz-adv-x="862" d="M240 1450h485l-330 -1722h-485l16 88h324l297 1546h-324z" />
<glyph unicode="^" horiz-adv-x="2048" d="M934 1462h178l520 -565h-92l-518 436l-520 -436h-90z" />
<glyph unicode="_" horiz-adv-x="1024" d="M0 -365h1024v-118h-1024v118z" />
<glyph unicode="`" horiz-adv-x="1024" d="M371 1507h202l123 -389h-102z" />
<glyph unicode="a" horiz-adv-x="1075" d="M840 987h106q-33 -70 -78 -293l-73 -362q-20 -96 -21 -144q0 -94 111 -94q23 0 114 21v-62q-172 -72 -251 -71q-125 0 -125 155v17q-164 -172 -306 -172q-131 0 -206.5 94t-75.5 264q0 203 106 379q76 127 198 197.5t263 70.5q106 0 197 -45zM649 907h-26 q-182 0 -300 -156.5t-118 -398.5q0 -246 178 -246q117 0 242 136l106 540z" />
<glyph unicode="b" horiz-adv-x="1038" d="M424 1507h68q-31 -96 -48 -188l-88 -481q180 154 303 153q117 0 192 -96t75 -252q0 -272 -160 -466.5t-414 -194.5q-154 0 -301 90l240 1290l-178 33v51zM225 147q84 -82 183 -81q131 0 235 157q115 172 115 393q0 119 -47 184.5t-129 65.5q-84 0 -240 -108z" />
<glyph unicode="c" horiz-adv-x="806" d="M629 737l-119 156h-10q-129 0 -218 -143.5t-89 -368.5q0 -133 54 -206t150 -73q154 0 320 170v-94q-190 -199 -383 -198q-137 0 -220 100t-83 272q0 276 170 463q166 178 366 178q84 0 137.5 -42t53.5 -101q0 -47 -36 -79t-93 -34z" />
<glyph unicode="d" horiz-adv-x="1071" d="M973 1507h53l-219 -1226q-12 -72 -12 -111q0 -84 90 -84q49 0 133 20v-61q-164 -59 -250 -59q-139 0 -139 145q0 27 2 41q-152 -190 -320 -190q-125 0 -196.5 96t-71.5 270q0 211 100 371q82 129 207 202.5t254 73.5q88 0 164 -34l72 409l-181 21v57zM641 909 q-31 6 -49 6q-147 0 -265 -159.5t-118 -405.5q0 -119 47 -185.5t127 -66.5q127 0 264 174l92 521z" />
<glyph unicode="e" horiz-adv-x="868" d="M225 524q184 10 293 87t109 180q0 47 -31 78.5t-76 31.5q-92 0 -172 -98.5t-123 -278.5zM215 455q-6 -43 -6 -93q0 -125 57.5 -196.5t155.5 -71.5q147 0 328 168v-96q-190 -184 -398 -184q-145 0 -227 97t-82 275q0 272 182 465q76 80 167 124t171 44q96 0 153.5 -55 t57.5 -148q0 -135 -145.5 -223t-413.5 -106z" />
<glyph unicode="f" horiz-adv-x="598" d="M725 1272l-168 137q-117 -78 -184 -477h289v-92h-306l-82 -582q-45 -317 -153 -469q-164 -231 -320 -231q-49 0 -79.5 29.5t-30.5 78.5t45 82l213 -55q66 70 101.5 196.5t68.5 362.5l86 588l-137 -15l2 68l155 63q51 258 168 400.5t262 142.5q72 0 121 -36t49 -85 q0 -41 -26.5 -69.5t-73.5 -36.5z" />
<glyph unicode="g" horiz-adv-x="985" d="M690 938h293v-88h-211q27 -66 27 -135q0 -170 -116 -277.5t-298 -107.5h-27q-27 -47 -26 -109v-12l325 -148q160 -74 160 -202q0 -117 -144.5 -211t-348.5 -94q-178 0 -282.5 74.5t-104.5 197.5q0 96 65.5 162.5t206.5 122.5q-2 12 -2 34q0 96 82 199q-188 78 -189 248 q0 168 116 282.5t284 114.5q92 0 190 -51zM637 727q0 88 -37 137t-102 49q-92 0 -164 -101t-72 -243q0 -82 37 -127t100 -45q90 0 164 97.5t74 232.5zM285 70q-186 -43 -187 -203q0 -98 76 -162.5t199 -64.5q129 0 209 53t80 125q0 80 -117 131z" />
<glyph unicode="h" horiz-adv-x="1128" d="M457 1507h63q-51 -201 -82 -362l-67 -350q238 195 393 194q80 0 126 -44t46 -120q0 -59 -29 -184l-71 -317q-20 -92 -21 -134q0 -102 105 -102q43 0 114 18v-55q-166 -63 -246 -63q-150 0 -149 125q0 45 14 108l88 379q20 84 21 131q0 131 -111 131q-117 0 -303 -168 l-127 -694h-174l281 1372l-193 17v51z" />
<glyph unicode="i" horiz-adv-x="587" d="M412 1442q45 0 77.5 -33t32.5 -78t-32.5 -76.5t-77.5 -31.5q-47 0 -79 30.5t-32 77.5q0 45 32 78t79 33zM371 987h53l-148 -766q-6 -33 -6 -51q0 -80 99 -80q57 0 151 31v-64q-172 -72 -289 -71q-131 0 -131 137q0 43 13 104l120 611l-165 30v54z" />
<glyph unicode="j" horiz-adv-x="550" d="M399 1436q45 0 78 -33t33 -78t-33 -78t-78 -33q-47 0 -78.5 32t-31.5 79t31.5 79t78.5 32zM362 987h74l-114 -729q-16 -109 -29.5 -172t-45.5 -148t-79 -151q-162 -229 -322 -229q-49 0 -78.5 29.5t-29.5 78.5t45 82l211 -55q49 51 83 143t48 170t41 246l92 604l-207 25 v47z" />
<glyph unicode="k" horiz-adv-x="1052" d="M461 1507h57l-219 -1020l379 392q106 109 180 108q51 0 84 -29.5t33 -74.5q0 -82 -113 -127l-74 80q-100 -74 -264 -222q133 -301 207 -413.5t172 -112.5q47 0 107 14v-57q-172 -55 -240 -55q-115 0 -192 157l-175 353l-116 -107l-66 -393h-170l277 1380l-189 11v57z" />
<glyph unicode="l" horiz-adv-x="563" d="M434 1507h55q-6 -37 -15 -82t-9 -51l-207 -1030q-23 -106 -22 -164q0 -98 112 -98q43 0 146 33v-64q-168 -70 -273 -69q-150 0 -149 143q0 59 37 244l196 1003l-182 21v53z" />
<glyph unicode="m" horiz-adv-x="1669" d="M371 989h51l-37 -196q240 197 387 196q78 0 121 -49t45 -139q225 188 375 188q76 0 122 -48t46 -128q0 -55 -25 -172l-70 -317q-23 -102 -22 -134q0 -102 104 -102q43 0 115 18v-55q-166 -63 -246 -63q-150 0 -149 123q0 35 16 110l88 379q18 76 19 131q0 131 -109 131 q-55 0 -129 -43t-141 -123l-133 -696h-170l123 600q18 86 18 137q0 125 -113 125q-104 0 -290 -168l-129 -694h-172l170 836l-168 32v54z" />
<glyph unicode="n" d="M371 987h51l-37 -196q246 197 397 196q80 0 126 -44t46 -120q0 -53 -28 -182l-70 -317q-23 -109 -22 -136q0 -100 106 -100q45 0 113 18v-57q-160 -61 -246 -61q-150 0 -150 123q0 39 17 110l88 379q18 86 18 131q0 68 -26.5 98.5t-83.5 30.5q-121 0 -303 -168l-127 -692 h-174l170 838l-168 30v52z" />
<glyph unicode="o" horiz-adv-x="1028" d="M571 989q160 0 254.5 -107.5t94.5 -293.5q0 -250 -166 -438q-150 -168 -361 -168q-158 0 -253 105.5t-95 283.5q0 262 164 448q151 170 362 170zM545 909q-135 0 -230.5 -153.5t-95.5 -386.5q0 -143 53.5 -223t145.5 -80q133 0 230 152.5t97 381.5q0 150 -53 229.5 t-147 79.5z" />
<glyph unicode="p" horiz-adv-x="1056" d="M346 989h53l-24 -127q180 127 309 127q123 0 191.5 -93t68.5 -265q0 -264 -174 -457q-78 -86 -181.5 -134t-207.5 -48q-76 0 -158 39l-67 -381l194 -35v-61h-491v61l121 25l20 22l215 1192l-160 20v52zM244 137q92 -55 176 -55q135 0 229 125q53 70 89 186.5t36 233.5 q0 119 -50 186.5t-134 67.5q-90 0 -230 -109z" />
<glyph unicode="q" horiz-adv-x="1048" d="M848 997h98l-22 -98l-213 -1245l196 -35v-65h-504v65l125 25l23 24l82 473q-162 -154 -305 -153q-127 0 -202 97t-75 267q0 240 135 416q82 109 191.5 167t222.5 58q88 0 195 -47zM643 909q-12 2 -37 2q-162 0 -275.5 -161.5t-113.5 -407.5q0 -111 51 -173.5t140 -62.5 q113 0 239 123l98 555z" />
<glyph unicode="r" horiz-adv-x="815" d="M362 987h41l-65 -280q197 281 364 280q51 0 83 -29.5t32 -78.5q0 -57 -38 -94t-101 -37h-12l-54 110q-145 -55 -208.5 -141t-90.5 -236l-84 -481h-172l170 838l-168 30v52z" />
<glyph unicode="s" horiz-adv-x="757" d="M545 756l-86 118q-29 20 -64 21q-61 0 -102 -39t-41 -98q0 -35 21.5 -68t46 -54.5t86.5 -68.5l34 -26q27 -20 34 -26.5t29.5 -24t29 -24.5t22.5 -22.5t20.5 -25.5t14.5 -25.5t13 -29t6 -31t3 -35.5q0 -135 -104.5 -225t-269.5 -90q-127 0 -200 49t-73 131q0 47 30 76.5 t77 29.5q39 0 88 -39l-37 -102q53 -72 147 -72q86 0 136.5 46t50.5 128q0 53 -34 93t-108 98q-76 57 -106.5 83.5t-59 73t-28.5 101.5q0 127 102.5 218t249.5 91q86 0 138.5 -36t52.5 -91q0 -43 -32 -72.5t-87 -31.5z" />
<glyph unicode="t" horiz-adv-x="681" d="M342 1186h94l-43 -234h295v-88h-311l-107 -547q-12 -61 -12 -90q0 -125 125 -125q78 0 195 39v-65q-209 -90 -316 -90q-172 0 -172 186q0 61 16 137l111 555l-127 -10v61l150 66z" />
<glyph unicode="u" horiz-adv-x="1132" d="M383 989l33 -28l-129 -596q-23 -106 -23 -152q0 -53 32 -83t87 -30q127 0 291 129l153 740h166l-145 -668q-20 -98 -21 -139q0 -33 30 -56.5t77 -23.5q37 0 115 22v-57q-174 -63 -263 -63q-123 0 -122 131q0 25 2 39q-207 -170 -371 -170q-92 0 -145.5 51t-53.5 141 q0 47 17 123l118 539l-170 30v54z" />
<glyph unicode="v" horiz-adv-x="929" d="M190 991h5q82 0 112.5 -51t42.5 -184l53 -561q238 299 314 505l-39 250q51 41 102 41q109 0 109 -117q0 -111 -142.5 -337t-418.5 -541h-99q29 59 29 139q0 23 -4 72l-51 479q-16 143 -62 174l-157 12v52z" />
<glyph unicode="w" horiz-adv-x="1460" d="M236 991h71l45 -809q272 518 377 760l123 14q14 -326 55 -802q266 356 332 551l-41 239q41 47 105 47q49 0 77.5 -30.5t28.5 -86.5q0 -109 -125 -310.5t-401 -563.5h-119l-49 715q-106 -221 -391 -715h-134l17 45l-55 811l-152 18v50z" />
<glyph unicode="x" horiz-adv-x="976" d="M264 993q4 0 11.5 1t11.5 1q78 0 113.5 -73.5t88.5 -282.5q10 -37 15 -57q203 414 391 413q49 0 83 -33.5t34 -80.5q0 -76 -101 -117l-88 80q-139 -37 -274 -350q76 -264 106 -320q47 -84 125 -84q41 0 109 23v-66q-150 -59 -230 -59q-96 0 -136 77.5t-95 305.5 q-4 18 -6 28q-100 -211 -195.5 -313t-195.5 -102q-57 0 -92 30.5t-35 79.5q0 88 100 105l94 -88q72 39 148 138t137 245q-84 291 -156 356l-170 22v50z" />
<glyph unicode="y" horiz-adv-x="972" d="M170 993q8 2 27 2q82 0 115.5 -76.5t74.5 -285.5q8 -51 14 -78l68 -346l322 778h38l162 -53v-43l-104 -62q-86 -96 -218 -381.5t-184 -377.5q-283 -514 -544 -514q-74 0 -123 39.5t-49 95.5q0 43 30.5 73.5t79.5 38.5l121 -120q92 6 179 95t179 265l-6 -4l-127 616 q-27 141 -82 213l-174 15v45z" />
<glyph unicode="z" horiz-adv-x="901" d="M764 1004l125 -66l-707 -788l199 51q158 -68 209 -68q82 0 127 74l-113 125q43 74 98 74q43 0 72 -34t29 -89q0 -109 -86 -198t-199 -89q-59 0 -165.5 44t-157.5 44q-27 0 -62 -18l-49 -89l-113 62l705 790l-203 -45q-115 59 -180 60q-82 0 -129 -66l108 -131 q-39 -66 -96 -65q-45 0 -70.5 31.5t-25.5 88.5q0 109 85 198t191 89q66 0 168 -53q94 -49 140 -49q25 0 61 16z" />
<glyph unicode="{" horiz-adv-x="995" d="M1001 1440l-14 -76q-154 -2 -218 -55.5t-91 -190.5l-33 -166q-31 -164 -104.5 -245.5t-231.5 -112.5q113 -29 163 -83t50 -153q0 -47 -12 -110l-33 -170q-20 -98 -20 -150q0 -123 217 -123h10l-16 -79h-50q-172 0 -246.5 48t-74.5 167q0 59 20 159l35 174q12 57 13 115 q0 88 -50.5 125t-162.5 37q-6 0 -21.5 -1t-24.5 -1l17 90q18 -2 53 -2q137 0 202.5 60.5t94.5 203.5l41 209q33 174 142.5 252t318.5 78h26z" />
<glyph unicode="|" horiz-adv-x="1024" d="M449 1565h126v-2048h-126v2048z" />
<glyph unicode="}" horiz-adv-x="995" d="M276 1440h23q182 0 266 -54.5t84 -175.5q0 -51 -10 -100l-41 -209q-14 -76 -14 -106q0 -82 50 -120t157 -38q35 0 53 2l-17 -90q-18 2 -51 2q-137 0 -204.5 -62.5t-96.5 -214.5l-33 -174q-41 -213 -134 -294.5t-308 -81.5q-8 0 -26.5 1t-28.5 1l14 79q166 2 224.5 57.5 t88.5 215.5l33 170q29 154 106.5 233.5t229.5 112.5q-213 43 -213 223q0 53 16 135l33 166q12 66 12 99q0 76 -54 109.5t-173 37.5z" />
<glyph unicode="~" horiz-adv-x="1705" d="M1530 758v-131q-201 -143 -387 -144q-86 0 -191 35l-99 35q-71 25 -104.5 35t-87 21.5t-98.5 11.5q-158 0 -385 -160v133q211 145 387 145q106 0 291 -65q10 -4 40 -14.5t43 -15.5t39 -13t42 -12.5t38.5 -8.5t44 -6t42.5 -2q162 0 385 156z" />
<glyph unicode="&#xa1;" horiz-adv-x="692" d="M373 989q47 0 80.5 -34.5t33.5 -82t-33.5 -82t-80.5 -34.5q-49 0 -84 34.5t-35 82t35 82t84 34.5zM289 621h98l-92 -783q-16 -143 -49 -204.5t-111 -61.5q-90 0 -90 92q0 45 35 174z" />
<glyph unicode="&#xa2;" d="M664 1231h92l-39 -203h37q150 0 252 -45l-43 -231h-109l10 145q-72 41 -164 41l-161 -844q96 0 180 39l45 152h108l-47 -240q-131 -45 -258 -45q-6 0 -22.5 1t-24.5 1l-39 -203h-92l39 207q-164 27 -253 126t-89 251q0 244 148.5 423t390.5 218zM606 930 q-152 -41 -249 -190.5t-97 -342.5q0 -117 49 -195.5t137 -103.5z" />
<glyph unicode="&#xa3;" d="M956 1120l-92 178h-8q-162 0 -246 -136t-131 -443h377v-94h-395q-53 -338 -295 -475l2 -5q119 10 141 11h609v-156h-961v117q158 33 225.5 144.5t108.5 363.5h-144v94h160q33 330 178.5 504t376.5 174q115 0 186.5 -42t71.5 -104q0 -102 -164 -131z" />
<glyph unicode="&#xa4;" horiz-adv-x="1241" d="M158 1419l207 -207q119 90 256 91q141 0 260 -91l204 207l72 -73l-205 -205q86 -113 86 -256.5t-86 -255.5l205 -205l-72 -74l-204 207q-113 -88 -260 -88q-143 0 -256 88l-207 -207l-72 74l207 205q-88 117 -88 256t88 256l-207 205zM623 1200q-131 0 -222.5 -92 t-91.5 -221q0 -131 91.5 -223.5t222.5 -92.5q129 0 221 93.5t92 222.5t-91 221t-222 92z" />
<glyph unicode="&#xa5;" d="M115 1360h440v-82l-125 -12l-22 -23l178 -553l411 537l-12 28l-98 23v82h375v-82l-123 -25l-297 -391h280v-84h-354l-158 -211h455v-84h-465l-68 -362l29 -29l137 -10v-82h-522v82l150 10l43 29l67 362h-432v84h449l-70 211h-320v84h285l-127 395l-106 21v82z" />
<glyph unicode="&#xa6;" horiz-adv-x="1024" d="M449 1432h126v-758h-126v758zM449 408h126v-758h-126v758z" />
<glyph unicode="&#xa7;" horiz-adv-x="1024" d="M973 1423l-51 -264h-91l9 164q-98 61 -185 61q-98 0 -169.5 -60t-71.5 -136q0 -31 9 -54.5t39 -47t49 -35t75.5 -40t85.5 -44.5q113 -61 165 -129t52 -162q0 -111 -86 -217.5t-234 -163.5q168 -86 168 -219q0 -150 -127 -256.5t-323 -106.5q-133 0 -279 64l45 264h101 l-7 -184q88 -53 185 -54q104 0 176 59.5t72 137.5q0 27 -6.5 48.5t-22.5 41t-30.5 32.5t-46.5 32.5l-52.5 31t-66.5 34t-70 36.5q-182 96 -183 276q0 119 81 218.5t231 156.5q-86 49 -124 99.5t-38 119.5q0 154 123 249t334 95q129 0 264 -47zM492 868q-227 -94 -228 -276 q0 -86 54.5 -139.5t185.5 -120.5q223 129 223 293q1 149 -235 243z" />
<glyph unicode="&#xa8;" horiz-adv-x="1024" d="M436 1417q45 0 76 -30.5t31 -73.5t-32 -74t-75 -31q-41 0 -71.5 31t-30.5 74t29.5 73.5t72.5 30.5zM819 1417q45 0 75 -30.5t30 -73.5t-31 -74t-74 -31q-41 0 -72.5 31t-31.5 74t31.5 73.5t72.5 30.5z" />
<glyph unicode="&#xa9;" horiz-adv-x="1843" d="M928 1487q156 0 303 -62.5t258 -175.5q225 -229 225 -561q0 -154 -62.5 -299t-178.5 -260q-227 -223 -558 -223q-315 0 -546 231q-231 227 -232 559q0 322 230 555q111 113 257 174.5t304 61.5zM928 1403q-291 0 -496 -209q-205 -211 -205 -498q0 -297 205 -497 q211 -207 494 -207q291 0 491 207q207 213 207 497q0 295 -205 500q-206 207 -491 207zM1247 1128v-245h-88l-31 153q-76 45 -159 45q-145 0 -241.5 -109.5t-96.5 -277.5t95 -278.5t232 -110.5q68 0 175 39l26 172h88v-256q-147 -51 -301 -51q-217 0 -355 135t-138 348 q0 215 139 349.5t366 134.5q142 -1 289 -48z" />
<glyph unicode="&#xaa;" horiz-adv-x="806" d="M690 1366l29 29h96q-29 -55 -59 -213l-51 -252q-14 -63 -15 -101q0 -59 70 -59q29 0 100 16v-57q-139 -53 -198 -53q-104 0 -105 110q-111 -111 -217 -110q-104 0 -163.5 70.5t-59.5 193.5q0 199 124 327t312 128q74 0 137 -29zM573 1325h-16q-129 0 -212 -105.5 t-83 -271.5q0 -168 129 -168q82 0 168 88l74 373z" />
<glyph unicode="&#xab;" horiz-adv-x="905" d="M446 846l-26 -135l-283 -219l199 -222l-27 -133l-282 273l30 163zM850 846l-25 -135l-282 -219l196 -222l-24 -133l-283 273l31 163z" />
<glyph unicode="&#xac;" horiz-adv-x="1705" d="M254 858h1198v-502h-115v385h-1083v117z" />
<glyph unicode="&#xad;" horiz-adv-x="653" d="M74 561h458l-26 -137h-459z" />
<glyph unicode="&#xae;" horiz-adv-x="1843" d="M928 1487q156 0 303 -62.5t258 -175.5q225 -229 225 -561q0 -154 -62.5 -299t-178.5 -260q-227 -223 -558 -223q-315 0 -546 231q-231 227 -232 559q0 322 230 555q111 113 257 174.5t304 61.5zM928 1403q-291 0 -496 -209q-205 -211 -205 -498q0 -297 205 -497 q211 -207 494 -207q291 0 491 207q207 213 207 497q0 295 -205 500q-206 207 -491 207zM520 1147h432q160 0 224 -37q49 -29 78.5 -79t29.5 -99q0 -184 -248 -240q94 -14 148 -80q23 -27 36 -56.5t23 -66t14 -49.5q27 -66 69 -89t130 -23v-74q-82 -16 -127 -16 q-94 0 -162 59q-29 25 -47 61.5t-36.5 92t-28.5 79.5q-31 68 -75 92.5t-128 24.5q-37 0 -59 -2v-307l129 -14v-76h-392v74l109 14v721l-119 20v70zM793 1069v-342q18 -2 51 -2q260 0 260 170q0 176 -262 176q-8 0 -24.5 -1t-24.5 -1z" />
<glyph unicode="&#xaf;" horiz-adv-x="1024" d="M336 1364h616l-18 -104h-617z" />
<glyph unicode="&#xb0;" horiz-adv-x="673" d="M338 1454q117 0 200 -82t83 -201q0 -117 -83 -199.5t-202 -82.5t-200 82t-81 200.5t83 200.5t200 82zM338 1372q-84 0 -143.5 -58.5t-59.5 -142.5t59.5 -143t143.5 -59t142.5 59t58.5 143t-58.5 142.5t-142.5 58.5z" />
<glyph unicode="&#xb1;" horiz-adv-x="1705" d="M795 1180h118v-344h539v-117h-539v-344h-118v344h-541v117h541v344zM254 158h1198v-117h-1198v117z" />
<glyph unicode="&#xb2;" horiz-adv-x="716" d="M119 625h389l43 104h57l-39 -201h-598l17 78q305 203 429 320.5t124 244.5q0 133 -142 134q-53 0 -120 -29l-27 -131q-31 -18 -62 -19q-59 0 -59 50q0 70 93 131t225 61q102 0 160.5 -49t58.5 -135q0 -125 -126 -244.5t-423 -314.5z" />
<glyph unicode="&#xb3;" horiz-adv-x="716" d="M412 967q94 -2 145 -45t51 -115q0 -133 -137 -225q-106 -68 -240 -68q-100 0 -164.5 38t-64.5 95q0 70 70 70q23 0 45 -8l20 -107q45 -29 109 -29q104 0 172.5 63.5t68.5 156.5q0 63 -40.5 98t-116.5 35q-47 0 -78 -4l10 69q12 -2 33 -2q109 0 174.5 54.5t65.5 134.5 q0 61 -39 97t-105 36q-59 0 -123 -41l-18 -117q-43 -14 -60 -14q-25 0 -41 15t-16 42q0 63 90 117.5t217 54.5q102 0 162 -46t60 -122q0 -80 -65.5 -142t-184.5 -91z" />
<glyph unicode="&#xb4;" horiz-adv-x="1024" d="M791 1507h202l-375 -389h-100z" />
<glyph unicode="&#xb5;" horiz-adv-x="1120" d="M164 193q-20 -104 -35.5 -218t-23 -175.5t-19.5 -117t-31.5 -78t-54.5 -22.5q-37 0 -58.5 23.5t-21.5 64.5q0 35 24 123l67 252q44 164 79 326l109 514h147l-104 -492q-12 -61 -13 -112q0 -82 42 -128.5t118 -46.5q199 0 258 269l111 510h149l-114 -531q-20 -98 -21 -137 q0 -49 25.5 -78.5t66.5 -29.5q72 0 117 69q14 23 26.5 53.5t18.5 51t14.5 35t20.5 14.5q27 0 26 -37q0 -59 -40 -150q-74 -164 -230 -163q-68 0 -108.5 50t-40.5 140v23q-92 -217 -281 -218q-194 1 -223 216z" />
<glyph unicode="&#xb6;" horiz-adv-x="991" d="M537 1374h401v-74l-127 -20v-1442h-100v1452h-156v-715h-31q-238 0 -354.5 97.5t-116.5 298.5q0 213 117 308t367 95z" />
<glyph unicode="&#xb7;" horiz-adv-x="569" d="M283 809q53 0 88 -36t35 -87t-36 -86t-87 -35q-49 0 -85 35t-36 86t35 87t86 36z" />
<glyph unicode="&#xb8;" horiz-adv-x="1024" d="M326 10h73l-24 -127q14 2 41 2q131 0 131 -112q0 -92 -79 -157t-204 -65q-59 0 -137 23l14 72q49 -14 119 -15q74 0 114 28t40 77q0 57 -86 57q-12 0 -45 -4z" />
<glyph unicode="&#xb9;" horiz-adv-x="716" d="M489 1368h31l-153 -764l12 -16l113 -6v-54h-388v54l136 6l20 22l129 637l-14 13l-187 -23v49z" />
<glyph unicode="&#xba;" horiz-adv-x="772" d="M522 1397q125 0 200 -79t75 -212q0 -178 -117 -304t-285 -126q-125 0 -198.5 77.5t-73.5 207.5q0 182 115.5 309t283.5 127zM500 1325q-94 0 -161 -103.5t-67 -258.5q0 -102 39 -157.5t107 -55.5q94 0 160.5 102t66.5 258q0 104 -37.5 159.5t-107.5 55.5z" />
<glyph unicode="&#xbb;" horiz-adv-x="905" d="M123 846l285 -273l-31 -163l-389 -273l24 133l283 222l-197 219zM528 846l283 -273l-31 -163l-389 -273l27 133l282 222l-198 219z" />
<glyph unicode="&#xbc;" horiz-adv-x="1812" d="M489 1368h31l-153 -764l12 -16l113 -6v-54h-388v54l136 6l20 22l129 637l-14 13l-187 -23v49zM1432 1374h124l-1138 -1374h-125zM1655 831h76l-103 -514h144l-17 -79h-145l-56 -283h-100l57 283h-415l16 79zM1604 698l-396 -381h320z" />
<glyph unicode="&#xbd;" horiz-adv-x="1812" d="M489 1368h31l-153 -764l12 -16l113 -6v-54h-388v54l136 6l20 22l129 637l-14 13l-187 -23v49zM1432 1374h124l-1138 -1374h-125zM1214 96h390l43 105h57l-39 -201h-598l16 78q305 203 429 320.5t124 244.5q0 133 -141 133q-53 0 -121 -28l-26 -132q-31 -18 -62 -18 q-59 0 -59 49q0 70 93 131.5t224 61.5q102 0 160.5 -49.5t58.5 -135.5q0 -125 -126 -244.5t-423 -314.5z" />
<glyph unicode="&#xbe;" horiz-adv-x="1814" d="M412 967q94 -2 145 -45t51 -115q0 -133 -137 -225q-106 -68 -240 -68q-100 0 -164.5 38t-64.5 95q0 70 70 70q23 0 45 -8l20 -107q45 -29 109 -29q104 0 172.5 63.5t68.5 156.5q0 63 -40.5 98t-116.5 35q-47 0 -78 -4l10 69q12 -2 33 -2q109 0 174.5 54.5t65.5 134.5 q0 61 -39 97t-105 36q-59 0 -123 -41l-18 -117q-43 -14 -60 -14q-25 0 -41 15t-16 42q0 63 90 117.5t217 54.5q102 0 162 -46t60 -122q0 -80 -65.5 -142t-184.5 -91zM1432 1374h124l-1138 -1374h-125zM1655 831h76l-103 -514h144l-17 -79h-145l-56 -283h-100l57 283h-415 l16 79zM1604 698l-396 -381h320z" />
<glyph unicode="&#xbf;" horiz-adv-x="995" d="M582 989q47 0 81.5 -34.5t34.5 -82t-34.5 -82t-81.5 -34.5q-49 0 -83 34.5t-34 82t34 82t83 34.5zM492 621h106l-57 -299q-182 -63 -277.5 -178t-95.5 -263q0 -215 242 -215h6l123 203q14 2 36 2q104 0 105 -80q0 -90 -95.5 -154.5t-242.5 -64.5q-170 0 -266 79t-96 214 q0 334 466 516z" />
<glyph unicode="&#xc0;" horiz-adv-x="1241" d="M707 1386h135l219 -1261l35 -37l100 -10v-78h-448v78l120 10l15 29l-64 391h-497l-220 -391l17 -29l125 -10v-78h-406v78l113 12zM707 1186l-334 -590h428zM541 1835h215l127 -313h-117z" />
<glyph unicode="&#xc1;" horiz-adv-x="1241" d="M707 1386h135l219 -1261l35 -37l100 -10v-78h-448v78l120 10l15 29l-64 391h-497l-220 -391l17 -29l125 -10v-78h-406v78l113 12zM707 1186l-334 -590h428zM969 1835h221l-385 -313h-121z" />
<glyph unicode="&#xc2;" horiz-adv-x="1241" d="M707 1386h135l219 -1261l35 -37l100 -10v-78h-448v78l120 10l15 29l-64 391h-497l-220 -391l17 -29l125 -10v-78h-406v78l113 12zM707 1186l-334 -590h428zM778 1835h129l156 -313h-117l-121 194l-227 -194h-119z" />
<glyph unicode="&#xc3;" horiz-adv-x="1241" d="M707 1386h135l219 -1261l35 -37l100 -10v-78h-448v78l120 10l15 29l-64 391h-497l-220 -391l17 -29l125 -10v-78h-406v78l113 12zM707 1186l-334 -590h428zM1057 1796h90q-10 -100 -72.5 -160.5t-146.5 -60.5q-68 0 -160 44t-117 44q-31 0 -56.5 -29.5t-33.5 -81.5h-92 q33 219 227 220q57 0 147.5 -45.5t117.5 -45.5q73 0 96 115z" />
<glyph unicode="&#xc4;" horiz-adv-x="1241" d="M707 1386h135l219 -1261l35 -37l100 -10v-78h-448v78l120 10l15 29l-64 391h-497l-220 -391l17 -29l125 -10v-78h-406v78l113 12zM707 1186l-334 -590h428zM612 1778q45 0 76 -31t31 -74t-32 -73.5t-75 -30.5q-41 0 -71.5 30.5t-30.5 73.5t29.5 74t72.5 31zM993 1778 q45 0 76 -31t31 -74t-32 -73.5t-75 -30.5q-41 0 -71.5 30.5t-30.5 73.5t29.5 74t72.5 31z" />
<glyph unicode="&#xc5;" horiz-adv-x="1241" d="M804.5 2007q102.5 0 174.5 -71.5t72 -174t-71 -173t-173 -70.5t-174 70.5t-72 173t70.5 174t173 71.5zM807 1913q-63 0 -108.5 -44t-45.5 -107.5t45 -107.5t108.5 -44t109 44t45.5 107.5t-44 107.5t-110 44zM707 1386h135l219 -1261l35 -37l100 -10v-78h-448v78l120 10 l15 29l-64 391h-497l-220 -391l17 -29l125 -10v-78h-406v78l113 12zM707 1186l-334 -590h428z" />
<glyph unicode="&#xc6;" horiz-adv-x="1787" d="M692 1374h1108l-59 -299h-96v174l-23 31h-440l-101 -518h312l34 29l48 149h88l-88 -451h-84l8 148l-23 29h-313l-111 -572h523l34 33l72 207h94l-65 -334h-989v78l129 12l32 29l80 405h-493l-326 -399l4 -29l131 -18v-78h-414v78l125 26l934 1145l-12 33l-119 10v82z M1012 1313l-566 -692h435z" />
<glyph unicode="&#xc7;" horiz-adv-x="1236" d="M1274 1329l-57 -315h-87v196l-16 39q-98 53 -215 54q-209 0 -364 -140q-121 -109 -188.5 -277.5t-67.5 -367.5q0 -213 111.5 -329.5t314.5 -116.5q80 0 176 28l39 35l90 236h88l-56 -324q-219 -72 -407 -72q-254 0 -402.5 154t-148.5 414q0 199 84 377t235 303 q213 176 500 176q174 0 371 -70zM569 0h74l-25 -125q14 2 41 2q131 0 132 -115q0 -92 -78 -155.5t-203 -63.5q-70 0 -139 21l14 74q55 -16 119 -17q72 0 112.5 28.5t40.5 78.5q0 57 -86 57q-12 0 -45 -4z" />
<glyph unicode="&#xc8;" horiz-adv-x="1118" d="M180 1374h953l-58 -299h-98v174l-23 31h-440l-100 -518h311l37 29l45 149h88l-86 -451h-84l8 148l-24 29h-314l-110 -572h522l37 33l69 207h95l-66 -334h-991v78l129 12l35 29l219 1136l-23 31l-131 10v78zM467 1835h215l127 -313h-117z" />
<glyph unicode="&#xc9;" horiz-adv-x="1118" d="M180 1374h953l-58 -299h-98v174l-23 31h-440l-100 -518h311l37 29l45 149h88l-86 -451h-84l8 148l-24 29h-314l-110 -572h522l37 33l69 207h95l-66 -334h-991v78l129 12l35 29l219 1136l-23 31l-131 10v78zM895 1835h221l-385 -313h-121z" />
<glyph unicode="&#xca;" horiz-adv-x="1118" d="M180 1374h953l-58 -299h-98v174l-23 31h-440l-100 -518h311l37 29l45 149h88l-86 -451h-84l8 148l-24 29h-314l-110 -572h522l37 33l69 207h95l-66 -334h-991v78l129 12l35 29l219 1136l-23 31l-131 10v78zM705 1835h129l155 -313h-117l-120 194l-228 -194h-118z" />
<glyph unicode="&#xcb;" horiz-adv-x="1118" d="M180 1374h953l-58 -299h-98v174l-23 31h-440l-100 -518h311l37 29l45 149h88l-86 -451h-84l8 148l-24 29h-314l-110 -572h522l37 33l69 207h95l-66 -334h-991v78l129 12l35 29l219 1136l-23 31l-131 10v78zM539 1778q45 0 75.5 -31t30.5 -74t-31.5 -73.5t-74.5 -30.5 q-41 0 -72 30.5t-31 73.5t30 74t73 31zM920 1778q45 0 75.5 -31t30.5 -74t-31.5 -73.5t-74.5 -30.5q-41 0 -72 30.5t-31 73.5t30 74t73 31z" />
<glyph unicode="&#xcc;" horiz-adv-x="638" d="M182 1374h500v-78l-135 -10l-33 -31l-219 -1136l24 -29l134 -12v-78h-500v78l131 12l33 29l219 1136l-23 31l-131 10v78zM227 1835h215l127 -313h-116z" />
<glyph unicode="&#xcd;" horiz-adv-x="638" d="M182 1374h500v-78l-135 -10l-33 -31l-219 -1136l24 -29l134 -12v-78h-500v78l131 12l33 29l219 1136l-23 31l-131 10v78zM655 1835h222l-385 -313h-121z" />
<glyph unicode="&#xce;" horiz-adv-x="638" d="M182 1374h500v-78l-135 -10l-33 -31l-219 -1136l24 -29l134 -12v-78h-500v78l131 12l33 29l219 1136l-23 31l-131 10v78zM465 1835h129l156 -313h-117l-121 194l-227 -194h-119z" />
<glyph unicode="&#xcf;" horiz-adv-x="638" d="M182 1374h500v-78l-135 -10l-33 -31l-219 -1136l24 -29l134 -12v-78h-500v78l131 12l33 29l219 1136l-23 31l-131 10v78zM299 1778q45 0 76 -31t31 -74t-32 -73.5t-75 -30.5q-41 0 -71.5 30.5t-30.5 73.5t29.5 74t72.5 31zM680 1778q45 0 75.5 -31t30.5 -74t-31.5 -73.5 t-74.5 -30.5q-41 0 -71.5 30.5t-30.5 73.5t29.5 74t72.5 31z" />
<glyph unicode="&#xd0;" horiz-adv-x="1374" d="M174 1374h465q313 0 475 -134t162 -388q0 -178 -65.5 -342t-186.5 -283q-229 -227 -649 -227h-432v78l131 12l32 29l109 559h-176l10 94h184l93 483l-21 31l-131 10v78zM510 1280l-96 -508h307l-19 -94h-309l-106 -582h112q340 0 504 215q80 104 127 256t47 307 q0 207 -111.5 306.5t-342.5 99.5h-113z" />
<glyph unicode="&#xd1;" horiz-adv-x="1398" d="M166 1374h352v-51l490 -1038l188 970l-20 31l-132 10v78h431v-78l-132 -10l-32 -31l-240 -1255h-119l-538 1139l-199 -1020l23 -29l131 -12v-78h-432v78l131 12l32 29l219 1136l-20 31l-133 10v78zM1124 1796h90q-10 -100 -72.5 -160.5t-146.5 -60.5q-68 0 -160 44 t-116 44q-31 0 -56.5 -29.5t-33.5 -81.5h-92q33 219 227 220q55 0 147.5 -45.5t116.5 -45.5q73 0 96 115z" />
<glyph unicode="&#xd2;" horiz-adv-x="1449" d="M829 1397q197 0 322 -94q104 -76 161.5 -193t57.5 -250q0 -350 -188 -596q-106 -137 -252 -213t-303 -76q-238 0 -390.5 156t-152.5 399q0 326 192 578q104 137 250.5 213t302.5 76zM1169 858q0 207 -96 326t-258 119q-215 0 -373 -232q-162 -238 -161 -553 q0 -205 97 -324.5t257 -119.5q215 0 373 231q161 234 161 553zM633 1835h215l127 -313h-117z" />
<glyph unicode="&#xd3;" horiz-adv-x="1449" d="M829 1397q197 0 322 -94q104 -76 161.5 -193t57.5 -250q0 -350 -188 -596q-106 -137 -252 -213t-303 -76q-238 0 -390.5 156t-152.5 399q0 326 192 578q104 137 250.5 213t302.5 76zM1169 858q0 207 -96 326t-258 119q-215 0 -373 -232q-162 -238 -161 -553 q0 -205 97 -324.5t257 -119.5q215 0 373 231q161 234 161 553zM1061 1835h221l-385 -313h-121z" />
<glyph unicode="&#xd4;" horiz-adv-x="1449" d="M829 1397q197 0 322 -94q104 -76 161.5 -193t57.5 -250q0 -350 -188 -596q-106 -137 -252 -213t-303 -76q-238 0 -390.5 156t-152.5 399q0 326 192 578q104 137 250.5 213t302.5 76zM1169 858q0 207 -96 326t-258 119q-215 0 -373 -232q-162 -238 -161 -553 q0 -205 97 -324.5t257 -119.5q215 0 373 231q161 234 161 553zM870 1835h129l156 -313h-117l-120 194l-228 -194h-119z" />
<glyph unicode="&#xd5;" horiz-adv-x="1449" d="M829 1397q197 0 322 -94q104 -76 161.5 -193t57.5 -250q0 -350 -188 -596q-106 -137 -252 -213t-303 -76q-238 0 -390.5 156t-152.5 399q0 326 192 578q104 137 250.5 213t302.5 76zM1169 858q0 207 -96 326t-258 119q-215 0 -373 -232q-162 -238 -161 -553 q0 -205 97 -324.5t257 -119.5q215 0 373 231q161 234 161 553zM1149 1796h90q-10 -100 -72.5 -160.5t-146.5 -60.5q-68 0 -160 44t-117 44q-31 0 -56 -29.5t-34 -81.5h-92q33 219 227 220q55 0 147.5 -45.5t117.5 -45.5q73 0 96 115z" />
<glyph unicode="&#xd6;" horiz-adv-x="1449" d="M829 1397q197 0 322 -94q104 -76 161.5 -193t57.5 -250q0 -350 -188 -596q-106 -137 -252 -213t-303 -76q-238 0 -390.5 156t-152.5 399q0 326 192 578q104 137 250.5 213t302.5 76zM1169 858q0 207 -96 326t-258 119q-215 0 -373 -232q-162 -238 -161 -553 q0 -205 97 -324.5t257 -119.5q215 0 373 231q161 234 161 553zM705 1778q45 0 75.5 -31t30.5 -74t-31.5 -73.5t-74.5 -30.5q-41 0 -72 30.5t-31 73.5t30 74t73 31zM1085 1778q45 0 76 -31t31 -74t-32 -73.5t-75 -30.5q-41 0 -71.5 30.5t-30.5 73.5t29.5 74t72.5 31z" />
<glyph unicode="&#xd7;" horiz-adv-x="1705" d="M381 1169l477 -477l475 477l82 -82l-475 -477l475 -475l-82 -82l-475 475l-477 -475l-80 82l475 475l-475 477z" />
<glyph unicode="&#xd8;" horiz-adv-x="1449" d="M1186 1522l76 -47l-113 -172q221 -168 221 -443q0 -350 -188 -596q-106 -137 -252 -213t-303 -76q-156 0 -295 76l-131 -203l-66 50l131 202q-180 150 -180 439q0 319 190 569q106 139 253 214t309 75q133 0 235 -51zM1010 1249q-88 53 -193 54q-229 0 -387 -230 q-74 -111 -118 -256t-44 -291q0 -168 76 -301zM1075 1192l-669 -1030q102 -94 239 -94q217 0 375 231q162 233 162 549q-1 217 -107 344z" />
<glyph unicode="&#xd9;" horiz-adv-x="1359" d="M150 1374h497v-78l-133 -10l-33 -31l-145 -745q-18 -88 -19 -154q0 -125 75 -189.5t216 -64.5q186 0 281.5 97.5t136.5 310.5l145 745l-24 31l-133 10v78h428v-78l-129 -10l-35 -31l-150 -763q-18 -90 -29.5 -135.5t-43 -111t-78.5 -114.5q-150 -154 -426 -154 q-205 0 -312.5 86.5t-107.5 247.5q0 53 25 181l147 763l-22 31l-131 10v78zM588 1835h215l127 -313h-117z" />
<glyph unicode="&#xda;" horiz-adv-x="1359" d="M150 1374h497v-78l-133 -10l-33 -31l-145 -745q-18 -88 -19 -154q0 -125 75 -189.5t216 -64.5q186 0 281.5 97.5t136.5 310.5l145 745l-24 31l-133 10v78h428v-78l-129 -10l-35 -31l-150 -763q-18 -90 -29.5 -135.5t-43 -111t-78.5 -114.5q-150 -154 -426 -154 q-205 0 -312.5 86.5t-107.5 247.5q0 53 25 181l147 763l-22 31l-131 10v78zM1016 1835h221l-385 -313h-121z" />
<glyph unicode="&#xdb;" horiz-adv-x="1359" d="M150 1374h497v-78l-133 -10l-33 -31l-145 -745q-18 -88 -19 -154q0 -125 75 -189.5t216 -64.5q186 0 281.5 97.5t136.5 310.5l145 745l-24 31l-133 10v78h428v-78l-129 -10l-35 -31l-150 -763q-18 -90 -29.5 -135.5t-43 -111t-78.5 -114.5q-150 -154 -426 -154 q-205 0 -312.5 86.5t-107.5 247.5q0 53 25 181l147 763l-22 31l-131 10v78zM825 1835h129l156 -313h-117l-121 194l-227 -194h-119z" />
<glyph unicode="&#xdc;" horiz-adv-x="1359" d="M150 1374h497v-78l-133 -10l-33 -31l-145 -745q-18 -88 -19 -154q0 -125 75 -189.5t216 -64.5q186 0 281.5 97.5t136.5 310.5l145 745l-24 31l-133 10v78h428v-78l-129 -10l-35 -31l-150 -763q-18 -90 -29.5 -135.5t-43 -111t-78.5 -114.5q-150 -154 -426 -154 q-205 0 -312.5 86.5t-107.5 247.5q0 53 25 181l147 763l-22 31l-131 10v78zM659 1778q45 0 76 -31t31 -74t-32 -73.5t-75 -30.5q-41 0 -71.5 30.5t-30.5 73.5t29.5 74t72.5 31zM1040 1778q45 0 76 -31t31 -74t-32 -73.5t-75 -30.5q-41 0 -71.5 30.5t-30.5 73.5t29.5 74 t72.5 31z" />
<glyph unicode="&#xdd;" horiz-adv-x="1150" d="M63 1374h498v-78l-133 -10l-33 -31l185 -579l428 579l-21 31l-131 10v78h459v-78l-135 -10l-33 -31l-520 -680l-90 -456l26 -29l133 -12v-78h-497v78l129 12l32 29l86 438l-229 698l-20 31l-134 10v78zM911 1835h222l-385 -313h-121z" />
<glyph unicode="&#xde;" horiz-adv-x="1089" d="M170 1374h498v-78l-133 -10l-33 -29l-27 -141h80q205 0 305 -37q90 -33 144.5 -111.5t54.5 -176.5q0 -233 -170 -383t-451 -150q-29 0 -131 4l-28 -143l14 -29l131 -12v-78h-483v78l129 12l32 29l222 1138l-25 29l-129 10v78zM457 1024l-131 -666q53 -4 77 -4 q219 0 341 107.5t122 298.5q0 139 -79.5 203.5t-247.5 64.5q-25 0 -82 -4z" />
<glyph unicode="&#xdf;" horiz-adv-x="1175" d="M1004 895q-55 6 -89 6q-111 0 -171 -40t-60 -107q0 -47 34 -84t120 -103q127 -98 157 -135q47 -59 47 -135q0 -135 -104 -225t-270 -90q-127 0 -199 49t-72 131q0 47 30 76.5t77 29.5q39 0 88 -39l-37 -102q53 -72 147 -72q86 0 136.5 46t50.5 128q0 53 -34 93t-107 98 q-76 57 -107 83.5t-59.5 73t-28.5 101.5q0 121 91 208t241 99q47 164 47 264q0 172 -176 172q-309 0 -389 -538l-93 -625q-45 -317 -153 -469q-164 -231 -320 -231q-49 0 -79.5 29.5t-30.5 78.5t45 82l213 -55q66 70 101.5 196.5t68.5 362.5l86 588q98 672 561 671 q143 0 223 -71.5t80 -196.5q1 -117 -65 -348z" />
<glyph unicode="&#xe0;" horiz-adv-x="1075" d="M840 987h106q-33 -70 -78 -293l-73 -362q-20 -96 -21 -144q0 -94 111 -94q23 0 114 21v-62q-172 -72 -251 -71q-125 0 -125 155v17q-164 -172 -306 -172q-131 0 -206.5 94t-75.5 264q0 203 106 379q76 127 198 197.5t263 70.5q106 0 197 -45zM649 907h-26 q-182 0 -300 -156.5t-118 -398.5q0 -246 178 -246q117 0 242 136l106 540zM397 1507h203l123 -389h-102z" />
<glyph unicode="&#xe1;" horiz-adv-x="1075" d="M840 987h106q-33 -70 -78 -293l-73 -362q-20 -96 -21 -144q0 -94 111 -94q23 0 114 21v-62q-172 -72 -251 -71q-125 0 -125 155v17q-164 -172 -306 -172q-131 0 -206.5 94t-75.5 264q0 203 106 379q76 127 198 197.5t263 70.5q106 0 197 -45zM649 907h-26 q-182 0 -300 -156.5t-118 -398.5q0 -246 178 -246q117 0 242 136l106 540zM817 1507h203l-375 -389h-100z" />
<glyph unicode="&#xe2;" horiz-adv-x="1075" d="M840 987h106q-33 -70 -78 -293l-73 -362q-20 -96 -21 -144q0 -94 111 -94q23 0 114 21v-62q-172 -72 -251 -71q-125 0 -125 155v17q-164 -172 -306 -172q-131 0 -206.5 94t-75.5 264q0 203 106 379q76 127 198 197.5t263 70.5q106 0 197 -45zM649 907h-26 q-182 0 -300 -156.5t-118 -398.5q0 -246 178 -246q117 0 242 136l106 540zM629 1507h133l151 -389h-112l-125 289l-234 -289h-112z" />
<glyph unicode="&#xe3;" horiz-adv-x="1075" d="M840 987h106q-33 -70 -78 -293l-73 -362q-20 -96 -21 -144q0 -94 111 -94q23 0 114 21v-62q-172 -72 -251 -71q-125 0 -125 155v17q-164 -172 -306 -172q-131 0 -206.5 94t-75.5 264q0 203 106 379q76 127 198 197.5t263 70.5q106 0 197 -45zM649 907h-26 q-182 0 -300 -156.5t-118 -398.5q0 -246 178 -246q117 0 242 136l106 540zM911 1450h86q-12 -113 -73.5 -179.5t-143.5 -66.5q-68 0 -162 51.5t-114 51.5q-37 0 -64.5 -36t-31.5 -97h-89q37 246 222 245q59 0 147 -53t119 -53q84 0 104 137z" />
<glyph unicode="&#xe4;" horiz-adv-x="1075" d="M840 987h106q-33 -70 -78 -293l-73 -362q-20 -96 -21 -144q0 -94 111 -94q23 0 114 21v-62q-172 -72 -251 -71q-125 0 -125 155v17q-164 -172 -306 -172q-131 0 -206.5 94t-75.5 264q0 203 106 379q76 127 198 197.5t263 70.5q106 0 197 -45zM649 907h-26 q-182 0 -300 -156.5t-118 -398.5q0 -246 178 -246q117 0 242 136l106 540zM463 1417q45 0 75.5 -30.5t30.5 -73.5t-31.5 -74t-74.5 -31q-41 0 -72 31t-31 74t30 73.5t73 30.5zM846 1417q45 0 74.5 -30.5t29.5 -73.5t-30.5 -74t-73.5 -31q-41 0 -73 31t-32 74t32 73.5 t73 30.5z" />
<glyph unicode="&#xe5;" horiz-adv-x="1075" d="M651 1559q92 0 156.5 -64.5t64.5 -157t-63.5 -156t-157.5 -63.5q-92 0 -156.5 63.5t-64.5 156t64.5 157t156.5 64.5zM651.5 1475q-57.5 0 -96.5 -40t-39 -97.5t39 -96.5t96.5 -39t97 40t39.5 95q0 57 -39.5 97.5t-97 40.5zM799 942l41 45h106q-33 -70 -78 -293l-73 -362 q-20 -96 -21 -144q0 -94 111 -94q23 0 114 21v-62q-172 -72 -251 -71q-125 0 -125 155v17q-164 -172 -306 -172q-131 0 -206.5 94t-75.5 264q0 203 106 379q76 127 198 197.5t263 70.5q107 0 197 -45zM649 907h-26q-182 0 -300 -156.5t-118 -398.5q0 -246 178 -246 q117 0 242 136l106 540z" />
<glyph unicode="&#xe6;" horiz-adv-x="1374" d="M596 139q-215 -154 -385 -153q-96 0 -151.5 56t-55.5 148q0 301 586 359l24 125q12 63 13 98q0 61 -36 95t-102 34q-53 0 -137 -35l-33 -168h-200q0 123 121.5 206t310.5 83q180 0 219 -137q168 137 305 137q96 0 153.5 -55t57.5 -148q0 -135 -145.5 -223t-413.5 -106 q-6 -43 -6 -93q0 -125 57.5 -196.5t155.5 -71.5q147 0 328 168v-96q-190 -184 -398 -184q-178 -1 -268 157zM578 205q-14 86 -15 147q0 53 10 121q-197 -25 -291 -81t-94 -154q0 -61 34 -96.5t97 -35.5q124 1 259 99zM737 524q184 10 293 87t109 180q0 47 -31 78.5t-76 31.5 q-92 0 -172 -98.5t-123 -278.5z" />
<glyph unicode="&#xe7;" horiz-adv-x="806" d="M629 737l-119 156h-10q-129 0 -218 -143.5t-89 -368.5q0 -133 54 -206t150 -73q154 0 320 170v-94q-190 -199 -383 -198q-137 0 -220 100t-83 272q0 276 170 463q166 178 366 178q84 0 137.5 -42t53.5 -101q0 -47 -36 -79t-93 -34zM268 10h74l-25 -127q14 2 41 2 q131 0 131 -112q0 -92 -78.5 -157t-203.5 -65q-59 0 -137 23l14 72q49 -14 119 -15q74 0 113.5 28t39.5 77q0 57 -86 57q-12 0 -45 -4z" />
<glyph unicode="&#xe8;" horiz-adv-x="868" d="M225 524q184 10 293 87t109 180q0 47 -31 78.5t-76 31.5q-92 0 -172 -98.5t-123 -278.5zM215 455q-6 -43 -6 -93q0 -125 57.5 -196.5t155.5 -71.5q147 0 328 168v-96q-190 -184 -398 -184q-145 0 -227 97t-82 275q0 272 182 465q76 80 167 124t171 44q96 0 153.5 -55 t57.5 -148q0 -135 -145.5 -223t-413.5 -106zM319 1507h203l123 -389h-102z" />
<glyph unicode="&#xe9;" horiz-adv-x="868" d="M225 524q184 10 293 87t109 180q0 47 -31 78.5t-76 31.5q-92 0 -172 -98.5t-123 -278.5zM215 455q-6 -43 -6 -93q0 -125 57.5 -196.5t155.5 -71.5q147 0 328 168v-96q-190 -184 -398 -184q-145 0 -227 97t-82 275q0 272 182 465q76 80 167 124t171 44q96 0 153.5 -55 t57.5 -148q0 -135 -145.5 -223t-413.5 -106zM739 1507h203l-375 -389h-100z" />
<glyph unicode="&#xea;" horiz-adv-x="868" d="M225 524q184 10 293 87t109 180q0 47 -31 78.5t-76 31.5q-92 0 -172 -98.5t-123 -278.5zM215 455q-6 -43 -6 -93q0 -125 57.5 -196.5t155.5 -71.5q147 0 328 168v-96q-190 -184 -398 -184q-145 0 -227 97t-82 275q0 272 182 465q76 80 167 124t171 44q96 0 153.5 -55 t57.5 -148q0 -135 -145.5 -223t-413.5 -106zM551 1507h133l152 -389h-113l-125 289l-233 -289h-113z" />
<glyph unicode="&#xeb;" horiz-adv-x="868" d="M225 524q184 10 293 87t109 180q0 47 -31 78.5t-76 31.5q-92 0 -172 -98.5t-123 -278.5zM215 455q-6 -43 -6 -93q0 -125 57.5 -196.5t155.5 -71.5q147 0 328 168v-96q-190 -184 -398 -184q-145 0 -227 97t-82 275q0 272 182 465q76 80 167 124t171 44q96 0 153.5 -55 t57.5 -148q0 -135 -145.5 -223t-413.5 -106zM385 1417q45 0 76 -30.5t31 -73.5t-32 -74t-75 -31q-41 0 -71.5 31t-30.5 74t29.5 73.5t72.5 30.5zM768 1417q45 0 74.5 -30.5t29.5 -73.5t-30.5 -74t-73.5 -31q-41 0 -72.5 31t-31.5 74t31.5 73.5t72.5 30.5z" />
<glyph unicode="&#xec;" horiz-adv-x="587" d="M371 987h53l-148 -766q-6 -33 -6 -51q0 -80 99 -80q57 0 151 31v-64q-172 -72 -289 -71q-131 0 -131 137q0 43 13 104l120 611l-165 30v54zM98 1507h203l123 -389h-102z" />
<glyph unicode="&#xed;" horiz-adv-x="587" d="M371 987h53l-148 -766q-6 -33 -6 -51q0 -80 99 -80q57 0 151 31v-64q-172 -72 -289 -71q-131 0 -131 137q0 43 13 104l120 611l-165 30v54zM518 1507h203l-375 -389h-100z" />
<glyph unicode="&#xee;" horiz-adv-x="587" d="M371 987h53l-148 -766q-6 -33 -6 -51q0 -80 99 -80q57 0 151 31v-64q-172 -72 -289 -71q-131 0 -131 137q0 43 13 104l120 611l-165 30v54zM330 1507h133l151 -389h-112l-125 289l-234 -289h-112z" />
<glyph unicode="&#xef;" horiz-adv-x="587" d="M371 987h53l-148 -766q-6 -33 -6 -51q0 -80 99 -80q57 0 151 31v-64q-172 -72 -289 -71q-131 0 -131 137q0 43 13 104l120 611l-165 30v54zM164 1417q45 0 75.5 -30.5t30.5 -73.5t-31.5 -74t-74.5 -31q-41 0 -72 31t-31 74t30 73.5t73 30.5zM547 1417q45 0 74.5 -30.5 t29.5 -73.5t-30.5 -74t-73.5 -31q-41 0 -73 31t-32 74t32 73.5t73 30.5z" />
<glyph unicode="&#xf0;" horiz-adv-x="1024" d="M676 975q-45 109 -94 209l-285 -115l-29 76l269 104l-72 105l-160 41l8 57l240 33l125 -178l242 94l30 -72l-229 -92q186 -350 186 -625q0 -276 -146.5 -453t-367.5 -177q-160 0 -254 105.5t-94 283.5q0 262 168 456q135 158 342 158q60 0 121 -10zM696 895 q-66 14 -106 14q-143 0 -223 -88q-63 -72 -105.5 -192.5t-42.5 -259.5q0 -145 52.5 -224t146.5 -79q135 0 228 147t93 381q0 156 -43 301z" />
<glyph unicode="&#xf1;" d="M371 987h51l-37 -196q246 197 397 196q80 0 126 -44t46 -120q0 -53 -28 -182l-70 -317q-23 -109 -22 -136q0 -100 106 -100q45 0 113 18v-57q-160 -61 -246 -61q-150 0 -150 123q0 39 17 110l88 379q18 86 18 131q0 68 -26.5 98.5t-83.5 30.5q-121 0 -303 -168l-127 -692 h-174l170 838l-168 30v52zM907 1450h86q-12 -113 -73.5 -179.5t-143.5 -66.5q-68 0 -162 51.5t-114 51.5q-37 0 -64.5 -36t-32.5 -97h-88q37 246 222 245q59 0 147 -53t119 -53q84 0 104 137z" />
<glyph unicode="&#xf2;" horiz-adv-x="1028" d="M571 989q160 0 254.5 -107.5t94.5 -293.5q0 -250 -166 -438q-150 -168 -361 -168q-158 0 -253 105.5t-95 283.5q0 262 164 448q151 170 362 170zM545 909q-135 0 -230.5 -153.5t-95.5 -386.5q0 -143 53.5 -223t145.5 -80q133 0 230 152.5t97 381.5q0 150 -53 229.5 t-147 79.5zM373 1507h202l123 -389h-102z" />
<glyph unicode="&#xf3;" horiz-adv-x="1028" d="M571 989q160 0 254.5 -107.5t94.5 -293.5q0 -250 -166 -438q-150 -168 -361 -168q-158 0 -253 105.5t-95 283.5q0 262 164 448q151 170 362 170zM545 909q-135 0 -230.5 -153.5t-95.5 -386.5q0 -143 53.5 -223t145.5 -80q133 0 230 152.5t97 381.5q0 150 -53 229.5 t-147 79.5zM793 1507h202l-374 -389h-101z" />
<glyph unicode="&#xf4;" horiz-adv-x="1028" d="M571 989q160 0 254.5 -107.5t94.5 -293.5q0 -250 -166 -438q-150 -168 -361 -168q-158 0 -253 105.5t-95 283.5q0 262 164 448q151 170 362 170zM545 909q-135 0 -230.5 -153.5t-95.5 -386.5q0 -143 53.5 -223t145.5 -80q133 0 230 152.5t97 381.5q0 150 -53 229.5 t-147 79.5zM604 1507h133l152 -389h-113l-125 289l-233 -289h-113z" />
<glyph unicode="&#xf5;" horiz-adv-x="1028" d="M571 989q160 0 254.5 -107.5t94.5 -293.5q0 -250 -166 -438q-150 -168 -361 -168q-158 0 -253 105.5t-95 283.5q0 262 164 448q151 170 362 170zM545 909q-135 0 -230.5 -153.5t-95.5 -386.5q0 -143 53.5 -223t145.5 -80q133 0 230 152.5t97 381.5q0 150 -53 229.5 t-147 79.5zM887 1450h86q-12 -113 -73.5 -179.5t-143.5 -66.5q-68 0 -162 51.5t-115 51.5q-37 0 -64.5 -36t-31.5 -97h-88q37 246 221 245q59 0 147.5 -53t118.5 -53q85 0 105 137z" />
<glyph unicode="&#xf6;" horiz-adv-x="1028" d="M571 989q160 0 254.5 -107.5t94.5 -293.5q0 -250 -166 -438q-150 -168 -361 -168q-158 0 -253 105.5t-95 283.5q0 262 164 448q151 170 362 170zM545 909q-135 0 -230.5 -153.5t-95.5 -386.5q0 -143 53.5 -223t145.5 -80q133 0 230 152.5t97 381.5q0 150 -53 229.5 t-147 79.5zM438 1417q45 0 76 -30.5t31 -73.5t-32 -74t-75 -31q-41 0 -71.5 31t-30.5 74t29.5 73.5t72.5 30.5zM821 1417q45 0 75 -30.5t30 -73.5t-31 -74t-74 -31q-41 0 -72.5 31t-31.5 74t31.5 73.5t72.5 30.5z" />
<glyph unicode="&#xf7;" horiz-adv-x="1705" d="M854 1085q47 0 81 -33.5t34 -80.5t-33 -81t-82 -34q-47 0 -81 34t-34 81t34 80.5t81 33.5zM254 670h1198v-117h-1198v117zM854 365q47 0 81 -34t34 -81t-33 -81t-82 -34q-47 0 -81 34t-34 81q0 49 34 82t81 33z" />
<glyph unicode="&#xf8;" horiz-adv-x="1028" d="M848 1120l57 -37l-110 -172q125 -113 125 -323q0 -250 -166 -441q-147 -166 -361 -165q-76 0 -155 32l-115 -178l-51 35l108 178q-135 117 -135 322q0 262 164 448q152 170 362 170q102 0 170 -41zM684 852q-55 57 -135 57q-139 0 -239.5 -155.5t-100.5 -380.5 q0 -113 41 -207zM723 791l-430 -678q47 -47 125 -47q141 0 241.5 152.5t100.5 377.5q0 125 -37 195z" />
<glyph unicode="&#xf9;" horiz-adv-x="1132" d="M383 989l33 -28l-129 -596q-23 -106 -23 -152q0 -53 32 -83t87 -30q127 0 291 129l153 740h166l-145 -668q-20 -98 -21 -139q0 -33 30 -56.5t77 -23.5q37 0 115 22v-57q-174 -63 -263 -63q-123 0 -122 131q0 25 2 39q-207 -170 -371 -170q-92 0 -145.5 51t-53.5 141 q0 47 17 123l118 539l-170 30v54zM381 1507h203l123 -389h-103z" />
<glyph unicode="&#xfa;" horiz-adv-x="1132" d="M383 989l33 -28l-129 -596q-23 -106 -23 -152q0 -53 32 -83t87 -30q127 0 291 129l153 740h166l-145 -668q-20 -98 -21 -139q0 -33 30 -56.5t77 -23.5q37 0 115 22v-57q-174 -63 -263 -63q-123 0 -122 131q0 25 2 39q-207 -170 -371 -170q-92 0 -145.5 51t-53.5 141 q0 47 17 123l118 539l-170 30v54zM801 1507h203l-375 -389h-101z" />
<glyph unicode="&#xfb;" horiz-adv-x="1132" d="M383 989l33 -28l-129 -596q-23 -106 -23 -152q0 -53 32 -83t87 -30q127 0 291 129l153 740h166l-145 -668q-20 -98 -21 -139q0 -33 30 -56.5t77 -23.5q37 0 115 22v-57q-174 -63 -263 -63q-123 0 -122 131q0 25 2 39q-207 -170 -371 -170q-92 0 -145.5 51t-53.5 141 q0 47 17 123l118 539l-170 30v54zM612 1507h133l152 -389h-113l-125 289l-233 -289h-113z" />
<glyph unicode="&#xfc;" horiz-adv-x="1132" d="M383 989l33 -28l-129 -596q-23 -106 -23 -152q0 -53 32 -83t87 -30q127 0 291 129l153 740h166l-145 -668q-20 -98 -21 -139q0 -33 30 -56.5t77 -23.5q37 0 115 22v-57q-174 -63 -263 -63q-123 0 -122 131q0 25 2 39q-207 -170 -371 -170q-92 0 -145.5 51t-53.5 141 q0 47 17 123l118 539l-170 30v54zM446 1417q45 0 76 -30.5t31 -73.5t-32 -74t-75 -31q-41 0 -71.5 31t-30.5 74t29.5 73.5t72.5 30.5zM829 1417q45 0 75 -30.5t30 -73.5t-31 -74t-74 -31q-41 0 -72.5 31t-31.5 74t31.5 73.5t72.5 30.5z" />
<glyph unicode="&#xfd;" horiz-adv-x="972" d="M170 993q8 2 27 2q82 0 115.5 -76.5t74.5 -285.5q8 -51 14 -78l68 -346l322 778h38l162 -53v-43l-104 -62q-86 -96 -218 -381.5t-184 -377.5q-283 -514 -544 -514q-74 0 -123 39.5t-49 95.5q0 43 30.5 73.5t79.5 38.5l121 -120q92 6 179 95t179 265l-6 -4l-127 616 q-27 141 -82 213l-174 15v45zM745 1507h203l-375 -389h-100z" />
<glyph unicode="&#xfe;" horiz-adv-x="1056" d="M434 1507h55q-6 -31 -11 -61.5t-9 -48t-4 -23.5l-90 -512q180 127 309 127q123 0 191.5 -93t68.5 -265q0 -264 -174 -457q-78 -86 -181.5 -134t-207.5 -48q-76 0 -158 39l-67 -381l194 -35v-61h-491v61l121 25l20 22l305 1710l-182 21v53zM244 137q92 -55 176 -55 q135 0 229 125q53 70 89 186.5t36 233.5q0 119 -50 186.5t-134 67.5q-90 0 -230 -109z" />
<glyph unicode="&#xff;" horiz-adv-x="972" d="M170 993q8 2 27 2q82 0 115.5 -76.5t74.5 -285.5q8 -51 14 -78l68 -346l322 778h38l162 -53v-43l-104 -62q-86 -96 -218 -381.5t-184 -377.5q-283 -514 -544 -514q-74 0 -123 39.5t-49 95.5q0 43 30.5 73.5t79.5 38.5l121 -120q92 6 179 95t179 265l-6 -4l-127 616 q-27 141 -82 213l-174 15v45zM391 1417q45 0 76 -30.5t31 -73.5t-32 -74t-75 -31q-41 0 -71.5 31t-30.5 74t29.5 73.5t72.5 30.5zM774 1417q45 0 75 -30.5t30 -73.5t-31 -74t-74 -31q-41 0 -72.5 31t-31.5 74t31.5 73.5t72.5 30.5z" />
<glyph unicode="&#x152;" horiz-adv-x="2062" d="M1169 858q0 207 -96 326t-258 119q-215 0 -373 -232q-162 -233 -161 -553q0 -205 97 -324.5t257 -119.5q215 0 373 231q161 234 161 553zM1241 1139l41 235h774l-59 -299h-99v174l-20 31h-440l-101 -518h312l34 29l48 149h88l-88 -451h-84l8 148l-23 29h-313l-111 -572 h523l34 33l72 207h94l-65 -334h-844l31 174q-186 -199 -430 -199q-238 0 -388.5 156t-150.5 399q0 211 83 397.5t232 309.5q195 160 443 160q284 0 399 -258z" />
<glyph unicode="&#x153;" horiz-adv-x="1536" d="M539 909q-131 0 -224.5 -153.5t-93.5 -390.5q0 -143 52.5 -221t142.5 -78q131 0 225 151.5t94 382.5q0 150 -52 229.5t-144 79.5zM879 799q172 190 354 190q96 0 152.5 -56t56.5 -149q0 -135 -145.5 -223t-413.5 -106q-6 -43 -6 -93q0 -125 58 -196.5t157 -71.5 q145 0 325 168v-96q-190 -184 -395 -184q-195 0 -272 163q-152 -164 -357 -163q-158 0 -253 105.5t-95 283.5q0 262 164 448q152 170 362 170q218 0 308 -190zM895 524q184 10 291.5 87t107.5 180q0 47 -29.5 78.5t-74.5 31.5q-92 0 -172 -98.5t-123 -278.5z" />
<glyph unicode="&#x178;" horiz-adv-x="1150" d="M63 1374h498v-78l-133 -10l-33 -31l185 -579l428 579l-21 31l-131 10v78h459v-78l-135 -10l-33 -31l-520 -680l-90 -456l26 -29l133 -12v-78h-497v78l129 12l32 29l86 438l-229 698l-20 31l-134 10v78zM555 1778q45 0 76 -31t31 -74t-32 -73.5t-75 -30.5 q-41 0 -71.5 30.5t-30.5 73.5t29.5 74t72.5 31zM936 1778q45 0 75.5 -31t30.5 -74t-31.5 -73.5t-74.5 -30.5q-41 0 -71.5 30.5t-30.5 73.5t29.5 74t72.5 31z" />
<glyph unicode="&#x2c6;" horiz-adv-x="1024" d="M602 1507h133l152 -389h-113l-125 289l-233 -289h-113z" />
<glyph unicode="&#x2dc;" horiz-adv-x="1024" d="M885 1450h86q-12 -113 -73.5 -179.5t-143.5 -66.5q-68 0 -162 51.5t-115 51.5q-37 0 -64.5 -36t-31.5 -97h-88q37 246 221 245q59 0 147.5 -53t118.5 -53q85 0 105 137z" />
<glyph unicode="&#x2000;" horiz-adv-x="1003" />
<glyph unicode="&#x2001;" horiz-adv-x="2007" />
<glyph unicode="&#x2002;" horiz-adv-x="1003" />
<glyph unicode="&#x2003;" horiz-adv-x="2007" />
<glyph unicode="&#x2004;" horiz-adv-x="667" />
<glyph unicode="&#x2005;" horiz-adv-x="501" />
<glyph unicode="&#x2006;" horiz-adv-x="333" />
<glyph unicode="&#x2007;" horiz-adv-x="333" />
<glyph unicode="&#x2008;" horiz-adv-x="249" />
<glyph unicode="&#x2009;" horiz-adv-x="401" />
<glyph unicode="&#x200a;" horiz-adv-x="110" />
<glyph unicode="&#x2010;" horiz-adv-x="653" d="M74 561h458l-26 -137h-459z" />
<glyph unicode="&#x2011;" horiz-adv-x="653" d="M74 561h458l-26 -137h-459z" />
<glyph unicode="&#x2012;" horiz-adv-x="653" d="M74 561h458l-26 -137h-459z" />
<glyph unicode="&#x2013;" horiz-adv-x="1024" d="M-25 555h1022l-22 -125h-1024z" />
<glyph unicode="&#x2014;" horiz-adv-x="2048" d="M2030 555l-25 -125h-2044l25 125h2044z" />
<glyph unicode="&#x2018;" horiz-adv-x="411" d="M416 1460h88q-229 -211 -230 -358v-4h132q14 -27 14 -54q0 -55 -42 -97t-104 -42q-59 0 -95 37t-36 100q1 197 273 418z" />
<glyph unicode="&#x2019;" horiz-adv-x="411" d="M193 905h-89q229 211 230 359v4h-131q-14 27 -15 53q0 53 43 96t104.5 43t95.5 -35.5t34 -101.5q0 -197 -272 -418z" />
<glyph unicode="&#x201a;" horiz-adv-x="411" d="M-45 -336h-88q229 211 229 356v5h-131q-14 27 -14 55q0 53 43 96t104.5 43t95 -37t33.5 -102q0 -195 -272 -416z" />
<glyph unicode="&#x201c;" horiz-adv-x="825" d="M416 1460h88q-229 -211 -230 -358v-4h132q14 -27 14 -54q0 -55 -42 -97t-104 -42q-59 0 -95 37t-36 100q1 197 273 418zM829 1460h89q-229 -211 -230 -354v-8h131q14 -27 15 -54q0 -55 -43 -97t-105 -42q-59 0 -94 37t-35 100q0 197 272 418z" />
<glyph unicode="&#x201d;" horiz-adv-x="825" d="M193 905h-89q229 211 230 359v4h-131q-14 27 -15 53q0 53 43 96t104.5 43t95.5 -35.5t34 -101.5q0 -197 -272 -418zM606 905h-88q229 211 230 359v4h-134q-14 27 -14 53q0 53 43 96t104.5 43t95.5 -35.5t34 -101.5q-1 -199 -271 -418z" />
<glyph unicode="&#x201e;" horiz-adv-x="825" d="M-45 -336h-88q229 211 229 356v5h-131q-14 27 -14 55q0 53 43 96t104.5 43t95 -37t33.5 -102q0 -195 -272 -416zM369 -336h-88q229 211 229 356v5h-133q-14 27 -15 55q0 53 43.5 96t104.5 43t95 -37t34 -102q0 -197 -270 -416z" />
<glyph unicode="&#x2022;" horiz-adv-x="1208" d="M307 762q0 123 87 209t210 86q121 0 208 -86t87 -209q0 -121 -87 -209t-210 -88t-209 87t-86 210z" />
<glyph unicode="&#x2026;" horiz-adv-x="2048" d="M915.5 242q53.5 0 91 -38t37.5 -93q0 -53 -37.5 -91t-91 -38t-92.5 37.5t-39 91.5q0 55 39 93t92.5 38zM231 242q53 0 92 -39t39 -92q0 -55 -37.5 -92t-93.5 -37q-53 0 -91 36.5t-38 92.5q0 53 37 90t92 41zM1597.5 242q53.5 0 92.5 -38t39 -93q0 -53 -39 -91t-92.5 -38 t-91.5 37.5t-38 91.5q0 55 38 93t91.5 38z" />
<glyph unicode="&#x202f;" horiz-adv-x="401" />
<glyph unicode="&#x2039;" horiz-adv-x="501" d="M446 846l-26 -135l-283 -219l199 -222l-27 -133l-282 273l30 163z" />
<glyph unicode="&#x203a;" horiz-adv-x="501" d="M123 846l285 -273l-31 -163l-389 -273l24 133l283 222l-197 219z" />
<glyph unicode="&#x205f;" horiz-adv-x="501" />
<glyph unicode="&#x2122;" horiz-adv-x="1683" d="M242 1356h469v-142h-54l-12 82l-14 13h-107v-439l78 -10v-43h-250v43l80 8v441h-106l-17 -13l-12 -82h-55v142zM772 1356h209v-25l139 -368l142 366v27h204v-47l-65 -11v-428l65 -10v-43h-219v43l62 10v435l-189 -488h-45l-180 488v-435l63 -10v-43h-184v43l64 10v428 l-66 11v47z" />
<glyph unicode="&#xe000;" horiz-adv-x="995" d="M0 995h995v-995h-995v995z" />
<glyph unicode="&#xfb01;" horiz-adv-x="1175" d="M1010 1442q45 0 77.5 -33t32.5 -78t-32.5 -76.5t-77.5 -31.5q-47 0 -79 30.5t-32 77.5q0 45 32 78t79 33zM725 1272l-168 137q-117 -78 -184 -477h340l256 55h53l-148 -766q-6 -33 -6 -51q0 -80 99 -80q57 0 151 31v-64q-172 -72 -289 -71q-131 0 -131 137q0 43 13 104 l120 611l-475 2l-82 -582q-45 -317 -153 -469q-164 -231 -320 -231q-49 0 -79.5 29.5t-30.5 78.5t45 82l213 -55q66 70 101.5 196.5t68.5 362.5l86 588l-137 -15l2 68l155 63q51 258 168 400.5t262 142.5q72 0 121 -36t49 -85q0 -41 -26.5 -69.5t-73.5 -36.5z" />
<glyph unicode="&#xfb02;" horiz-adv-x="1185" d="M1055 1507h55q-16 -98 -25 -133l-206 -1030q-23 -106 -23 -164q0 -98 113 -98q43 0 145 33v-64q-168 -70 -272 -69q-147 0 -148 143q0 70 35 244l197 1003l-101 10l-100 -110l-168 137q-117 -78 -184 -477h286v-94h-303l-82 -580q-45 -317 -153 -469q-164 -231 -320 -231 q-49 0 -79.5 29.5t-30.5 78.5t45 82l213 -55q66 70 101.5 196.5t68.5 362.5l86 588l-137 -15l2 68l155 63q51 258 168 400.5t262 142.5q82 0 129 -45z" />
<glyph unicode="&#xfb03;" horiz-adv-x="1783" d="M1608 1442q45 0 77.5 -33t32.5 -78t-32.5 -76.5t-77.5 -31.5q-47 0 -79 30.5t-32 77.5q0 45 32 78t79 33zM1567 987h53l-148 -766q-6 -33 -6 -51q0 -80 99 -80q57 0 151 31v-64q-172 -72 -289 -71q-131 0 -131 137q0 43 13 104l120 611l-165 30v54zM1323 1272l-168 137 q-117 -78 -184 -477h289v-92h-306l-82 -582q-45 -317 -153 -469q-164 -231 -320 -231q-49 0 -79.5 29.5t-30.5 78.5t45 82l213 -55q66 70 101.5 196.5t68.5 362.5l86 588l-137 -15l2 68l155 63q51 258 168 400.5t262 142.5q72 0 121 -36t49 -85q0 -41 -26.5 -69.5 t-73.5 -36.5zM725 1272l-168 137q-117 -78 -184 -477h289v-92h-306l-82 -582q-45 -317 -153 -469q-164 -231 -320 -231q-49 0 -79.5 29.5t-30.5 78.5t45 82l213 -55q66 70 101.5 196.5t68.5 362.5l86 588l-137 -15l2 68l155 63q51 258 168 400.5t262 142.5q72 0 121 -36 t49 -85q0 -41 -26.5 -69.5t-73.5 -36.5z" />
<glyph unicode="&#xfb04;" horiz-adv-x="1759" d="M1630 1507h55q-6 -37 -15 -82t-9 -51l-207 -1030q-23 -106 -22 -164q0 -98 112 -98q43 0 146 33v-64q-168 -70 -273 -69q-150 0 -149 143q0 59 37 244l196 1003l-182 21v53zM1323 1272l-168 137q-117 -78 -184 -477h289v-92h-306l-82 -582q-45 -317 -153 -469 q-164 -231 -320 -231q-49 0 -79.5 29.5t-30.5 78.5t45 82l213 -55q66 70 101.5 196.5t68.5 362.5l86 588l-137 -15l2 68l155 63q51 258 168 400.5t262 142.5q72 0 121 -36t49 -85q0 -41 -26.5 -69.5t-73.5 -36.5zM725 1272l-168 137q-117 -78 -184 -477h289v-92h-306 l-82 -582q-45 -317 -153 -469q-164 -231 -320 -231q-49 0 -79.5 29.5t-30.5 78.5t45 82l213 -55q66 70 101.5 196.5t68.5 362.5l86 588l-137 -15l2 68l155 63q51 258 168 400.5t262 142.5q72 0 121 -36t49 -85q0 -41 -26.5 -69.5t-73.5 -36.5z" />
</font>
</defs>
</svg>
